<?xml version="1.0" encoding="utf-8"?>
<!-- Generator: Adobe Illustrator 27.5.0, SVG Export Plug-In . SVG Version: 6.00 Build 0)  -->
<svg version="1.1" xmlns="http://www.w3.org/2000/svg" xmlns:xlink="http://www.w3.org/1999/xlink" x="0px" y="0px"
	 viewBox="0 0 500 500" style="enable-background:new 0 0 500 500;" xml:space="preserve">
<g id="Background_Simple">
	<g>
		<path style="opacity:0.7;fill:#FFFFFF;" d="M67.931,167.086c0,0-27.877,71.988,11.297,144.503
			c39.174,72.516,119.879,110.802,184.469,143.548c64.59,32.746,131.661,16.799,163.534-36.838
			c31.873-53.637-11.845-91.928-11.897-168.418c-0.051-76.49,11.447-96.742-29.963-161.364
			c-41.41-64.623-143.059-78.925-219.9-30.996C88.631,105.45,67.931,167.086,67.931,167.086z"/>
	</g>
	<g>
		<path style="fill:#92E3A9;" d="M118.202,391.049c14.359,2.142,28.989,1.773,43.389,3.613
			c36.316,4.641,58.976,24.727,85.156,43.747h162.375c1.163-1.224,2.308-2.464,3.415-3.737
			c39.514-45.448,43.723-121.67,28.433-177.054c-20.503-74.27-76.939-164.406-157.754-181.681
			c-35.732-7.638-73.365-1.13-103.582,19.44C112.301,141.212,48.723,220.391,50.868,305.87
			C51.897,346.845,75.846,384.73,118.202,391.049z"/>
		<path style="opacity:0.7;fill:#FFFFFF;" d="M118.202,391.049c14.359,2.142,28.989,1.773,43.389,3.613
			c36.316,4.641,58.976,24.727,85.156,43.747h162.375c1.163-1.224,2.308-2.464,3.415-3.737
			c39.514-45.448,43.723-121.67,28.433-177.054c-20.503-74.27-76.939-164.406-157.754-181.681
			c-35.732-7.638-73.365-1.13-103.582,19.44C112.301,141.212,48.723,220.391,50.868,305.87
			C51.897,346.845,75.846,384.73,118.202,391.049z"/>
	</g>
</g>
<g id="Floor">
	
		<line style="fill:none;stroke:#263238;stroke-linecap:round;stroke-linejoin:round;stroke-miterlimit:10;" x1="38.923" y1="438.409" x2="464.461" y2="438.409"/>
</g>
<g id="Character">
	<g>
		<path style="fill:#FFFFFF;stroke:#263238;stroke-linecap:round;stroke-linejoin:round;stroke-miterlimit:10;" d="M286.506,113.293
			l-0.736-6.33c0,0,2.978-5.512,2.978-6.052c0-0.541-1.055-5.948-2.242-7.53c-1.187-1.582-2.259-2.242-3.569-3.429
			c-1.31-1.187-1.838-0.016-1.442,1.377c0,0-3.44-1.078-4.615-0.981c-0.671,0.055-2.506,0.981-2.506,0.981s-1.193-0.276-1.587-0.207
			c-0.642,0.114-2.313,1.203-2.313,1.203s-1.346,0.38-1.704,0.58c-0.878,0.491-2.043,2.848-2.043,2.848s-1.583,0.676-1.847,1.203
			c-0.264,0.527-2.644,3.838-2.032,4.11c1.439,0.64,4.01-1.192,4.01-1.192s3.798,0.343,4.005,1.335
			c0.208,0.992,3.051,6.016,4.929,6.808v5.934L286.506,113.293z"/>
		<polygon style="fill:#92E3A9;stroke:#263238;stroke-linecap:round;stroke-linejoin:round;stroke-miterlimit:10;" points="
			389.658,146.789 384.45,153.514 377.034,147.77 376.639,142.085 382.243,141.046 		"/>
		<path style="fill:#263238;" d="M350.783,101.787c0,0,7.27-2.782,13.003,1.567c7.246,5.497,16.152,21.179,7.546,49.069
			c0,0-9.289-9.297-35.943,0c0,0-7.086-3.552-8.467-23.937C326.193,117.735,324.674,97.238,350.783,101.787z"/>
		<path style="fill:none;stroke:#263238;stroke-linecap:round;stroke-linejoin:round;stroke-miterlimit:10;" d="M376.639,142.085
			c0,0-6.801,0.531-9.729-10.716"/>
		<polygon style="fill:#92E3A9;stroke:#263238;stroke-linecap:round;stroke-linejoin:round;stroke-miterlimit:10;" points="
			415.904,318.338 408.057,321.619 404.439,312.965 406.899,307.824 412.286,309.684 		"/>
		<path style="fill:none;stroke:#263238;stroke-linecap:round;stroke-linejoin:round;stroke-miterlimit:10;" d="M407.161,308.26
			c0,0-2.727-10.681-11.059-10.879"/>
		<path style="fill:#92E3A9;stroke:#263238;stroke-linecap:round;stroke-linejoin:round;stroke-miterlimit:10;" d="M334.672,138.234
			c5.479,0.531,5.117-12.812,0.373-13.695C329.706,123.546,326.795,137.47,334.672,138.234z"/>
		<path style="fill:#757575;stroke:#263238;stroke-linecap:round;stroke-linejoin:round;stroke-miterlimit:10;" d="M336.603,121.008
			c-7.491-0.727-6.996,17.517-0.51,18.724C343.393,141.091,347.372,122.053,336.603,121.008z"/>
		<g>
			<path style="fill:#92E3A9;stroke:#263238;stroke-linecap:round;stroke-linejoin:round;stroke-miterlimit:10;" d="
				M323.483,414.147l1.041,2.932c0,0-2.41,4.046-5.079,7.148c0,0-1.028-0.327-2.644,1.124c-1.616,1.451-1.763,3.76-1.763,3.76
				s-7.634,9.163-17.331,9.295c-9.698,0.132-6.766-4.747-6.766-4.747L323.483,414.147z"/>
			<g>
				<defs>
					<path id="XMLID_676_" d="M314.376,390.835c0,0-12.994-4.791-15.546,4.791c0,0,2.32,10.552,0.928,16.316
						c-1.392,5.763-8.384,16.788-8.817,18.887c-0.845,4.094-0.208,4.372-0.208,4.372s5.092,2.943,11.925-0.208
						c6.833-3.151,18.678-16.706,20.535-19.496c1.856-2.791-5.801-13.83-5.801-13.83L314.376,390.835z"/>
				</defs>
				<use xlink:href="#XMLID_676_"  style="overflow:visible;fill:#FFFFFF;"/>
				<clipPath id="XMLID_00000157988070891028496130000013238830552328465078_">
					<use xlink:href="#XMLID_676_"  style="overflow:visible;"/>
				</clipPath>
				<path style="opacity:0.7;clip-path:url(#XMLID_00000157988070891028496130000013238830552328465078_);" d="M314.376,390.835
					c0,0-12.994-4.791-15.546,4.791c0,0,2.32,10.552,0.928,16.316c-1.392,5.763-8.384,16.788-8.817,18.887
					c-0.845,4.094-0.208,4.372-0.208,4.372s5.092,2.943,11.925-0.208c6.833-3.151,18.678-16.706,20.535-19.496
					c1.856-2.791-5.801-13.83-5.801-13.83L314.376,390.835z"/>
				
					<use xlink:href="#XMLID_676_"  style="overflow:visible;fill:none;stroke:#263238;stroke-linecap:round;stroke-linejoin:round;stroke-miterlimit:10;"/>
			</g>
			<path style="fill:none;stroke:#263238;stroke-linecap:round;stroke-linejoin:round;stroke-miterlimit:10;" d="M307.725,404.382
				c0,0,2.159,9.572-3.252,18.806c0,0-3.218,2.992-1.856,4.772"/>
			<path style="fill:none;stroke:#263238;stroke-linecap:round;stroke-linejoin:round;stroke-miterlimit:10;" d="M306.312,421.875
				c0,0-6.799,0.406-10.35-0.98"/>
			<path style="fill:none;stroke:#263238;stroke-linecap:round;stroke-linejoin:round;stroke-miterlimit:10;" d="M307.57,418.121
				c0,0-6.355,0.972-9.906-1.041"/>
			<path style="fill:none;stroke:#263238;stroke-linecap:round;stroke-linejoin:round;stroke-miterlimit:10;" d="M308.653,413.955
				c0,0-5.574,0.814-9.207-0.912"/>
			<path style="fill:none;stroke:#263238;stroke-linecap:round;stroke-linejoin:round;stroke-miterlimit:10;" d="M309.272,409.234
				c0,0-6.197,1.944-9.131,0"/>
		</g>
		<path style="fill:#263238;" d="M363.267,225.571c0,0,12.044,34.928,6.695,57.815c-5.349,22.888-6.986,32.28-6.695,44.727
			c0.291,12.447-12.645,77.103-12.645,77.103h-11.86c0,0,1.759-56.009,1.673-69.563c-0.086-13.555,2.449-9.862-0.665-23.049
			c-3.113-13.187-0.803-26.374-5.123-40.615c0,0-23.309,40.088-27.529,45.89c0,0,4.688,17.611,4.165,32.579
			c-0.613,17.531,0.932,43.921,0.932,43.921s-2.647,4.951-9.9,2.966c0,0-18.933-78.107-17.878-81.951
			c1.055-3.845,8.439-46.141,28.707-74.196c0,0,3.469-11.934,5.842-19.582L363.267,225.571z"/>
		<g>
			<g>
				<defs>
					<path id="XMLID_675_" d="M353.602,403.791c0,0-5.538-3.956-17.011-3.165c0,0-0.831,13.752-2.393,17.755
						c-1.563,4.003-9.784,10.926-11.311,12.113c-1.527,1.187-1.527,5.341-1.527,5.341h34.813c0,0-0.593-9.204-2.769-17.657
						L353.602,403.791z"/>
				</defs>
				<use xlink:href="#XMLID_675_"  style="overflow:visible;fill:#FFFFFF;"/>
				<clipPath id="XMLID_00000080198831283320743170000015421430018785374389_">
					<use xlink:href="#XMLID_675_"  style="overflow:visible;"/>
				</clipPath>
				<path style="opacity:0.7;clip-path:url(#XMLID_00000080198831283320743170000015421430018785374389_);" d="M353.602,403.791
					c0,0-5.538-3.956-17.011-3.165c0,0-0.831,13.752-2.393,17.755c-1.563,4.003-9.784,10.926-11.311,12.113
					c-1.527,1.187-1.527,5.341-1.527,5.341h34.813c0,0-0.593-9.204-2.769-17.657L353.602,403.791z"/>
				
					<use xlink:href="#XMLID_675_"  style="overflow:visible;fill:none;stroke:#263238;stroke-linecap:round;stroke-linejoin:round;stroke-miterlimit:10;"/>
			</g>
			<path style="fill:none;stroke:#263238;stroke-linecap:round;stroke-linejoin:round;stroke-miterlimit:10;" d="M346.415,405.571
				c0,0-0.823,12.659-2.785,15.956s-3.859,5.011-3.859,5.011s-2.384,0.038,0,3.203"/>
			<path style="fill:none;stroke:#263238;stroke-linecap:round;stroke-linejoin:round;stroke-miterlimit:10;" d="M342.426,425.352
				c0,0-7.423-4.266-12.711-1.045"/>
			<path style="fill:none;stroke:#263238;stroke-linecap:round;stroke-linejoin:round;stroke-miterlimit:10;" d="M344.216,422.456
				c0,0-5.182-4.05-11.294-1.827"/>
			<path style="fill:none;stroke:#263238;stroke-linecap:round;stroke-linejoin:round;stroke-miterlimit:10;" d="M346.415,418.044
				c0,0-5.576-4.333-11.458-1.573"/>
			<path style="fill:none;stroke:#263238;stroke-linecap:round;stroke-linejoin:round;stroke-miterlimit:10;" d="M347.173,412.535
				c0,0-6.764-3.638-11.69-0.879"/>
			<path style="fill:#92E3A9;stroke:#263238;stroke-linecap:round;stroke-linejoin:round;stroke-miterlimit:10;" d="
				M356.173,435.835v2.571h-3.988c0,0-3.429-1.978-6.693,0c0,0-15.527,0-18.791,0c-3.264,0-5.736-1.286-5.736-1.286l0.396-1.286
				H356.173z"/>
		</g>
		<g>
			<defs>
				<path id="XMLID_683_" d="M382.769,162.924c-3.596-2.274-7.912-4.542-12.264-5.556c0,0-2.352-2.309-3.596-0.502
					c-4.976,7.227-31.57-3.12-31.57-3.12s-1.467-1.649-5.239-1.574c0,0-3.541-3.276-9.079-3.672
					c-5.538-0.396-24.791,3.179-27.165,1.672c-2.374-1.507-7.121-39.485-7.121-39.485h-11.472v4.915c0,0-5.143,12.096-4.747,29.503
					s-15.396,24.132,32.077,39.956c0,0-1.582,28.484,3.56,41.143c0,0,38.116,19.139,62.377,19.262c0,0,5.396,3.54-1.683-12.679
					l8.141-11.17c0,0,11.473,20.038,19.385,14.489C402.286,230.555,395.982,171.278,382.769,162.924z"/>
			</defs>
			<use xlink:href="#XMLID_683_"  style="overflow:visible;fill:#92E3A9;"/>
			<clipPath id="XMLID_00000177474893069402842760000008879895045945845950_">
				<use xlink:href="#XMLID_683_"  style="overflow:visible;"/>
			</clipPath>
			<path style="opacity:0.2;clip-path:url(#XMLID_00000177474893069402842760000008879895045945845950_);fill-opacity:0.7;" d="
				M302.45,188.692c0.06-2.27,0.14-3.63,0.14-3.63c-47.47-15.83-31.68-22.55-32.07-39.96c-0.4-17.4,4.74-29.5,4.74-29.5v-4.92h11.48
				c0,0,4.74,37.98,7.12,39.49c5.34,8.21-4.45,17.85-1.02,19.4c3.42,1.55,11.82-6.03,11.82-6.03
				C306.27,176.862,302.45,188.692,302.45,188.692z"/>
			<path style="opacity:0.2;clip-path:url(#XMLID_00000177474893069402842760000008879895045945845950_);fill-opacity:0.7;" d="
				M392.26,211.932c0,0-2.26,16.41-3.45,24.61c-6.83-2.71-13.82-14.93-13.82-14.93l-8.14,11.17c7.08,16.22,1.68,12.68,1.68,12.68
				c-24.26-0.12-62.38-19.26-62.38-19.26c-0.77-1.89-1.38-4.13-1.87-6.57c24.86,19.87,56.97,22.18,59.86,22.35
				c-4.87-0.33-21.36-5.39-23.31-9.2c-1.98-3.87,16.03-0.28,20.71-1.07c4.69-0.79,9.79-16.02,9.79-16.02
				c-3.52,0-7.95-12.66-7.54-14.23c0.4-1.57,6.47-1.22,6.47-1.22s-3.31-3.15-2.39-7.27c0.92-4.13-0.73-10.32,2.54-9.53
				c3.26,0.8,2.47,6.29,2.47,6.29L392.26,211.932z"/>
			
				<use xlink:href="#XMLID_683_"  style="overflow:visible;fill:none;stroke:#263238;stroke-linecap:round;stroke-linejoin:round;stroke-miterlimit:10;"/>
		</g>
		<g>
			<path style="fill:#FFFFFF;stroke:#263238;stroke-linecap:round;stroke-linejoin:round;stroke-miterlimit:10;" d="M344.31,169.526
				c11.53,0.92,22.6-12.66,22.6-12.66s-6.25-0.26-7.04-3.12c-2.52-9.02,3.7-20.92,3.7-20.92s-27.57,3.01-22.23,8.87
				c1.12,1.23,1.92,2.43,2.49,3.57c2.01,3.98,1.1,7.18,0.27,8.01c-0.06,0.06-0.13,0.11-0.19,0.15c-1.61,0.9-8.57,0.32-8.57,0.32
				S333.79,168.686,344.31,169.526z"/>
			<path style="fill:none;stroke:#263238;stroke-linecap:round;stroke-linejoin:round;stroke-miterlimit:10;" d="M363.275,160.672
				c0,0-5.076,2.526-12.814,2.526l-3.325,1.978"/>
			<path style="fill:none;stroke:#263238;stroke-linecap:round;stroke-linejoin:round;stroke-miterlimit:10;" d="M343.667,165.176
				l-0.439-2.252c0,0-5.811-1.315-7.84-4.542"/>
			<path style="fill:#263238;" d="M344.1,153.276c8.642,1.524,11.734-9.652,11.734-9.652s-6.934-1.468-12.004,1.642
				C345.84,149.246,344.93,152.446,344.1,153.276z"/>
		</g>
		<g>
			<path style="fill:#FFFFFF;stroke:#263238;stroke-linecap:round;stroke-linejoin:round;stroke-miterlimit:10;" d="M343.805,104.25
				c-18.835,2.776-9.746,30.531-7.795,37.422c0.721,2.548,8.647,10.026,12.196,9.342c2.777-0.535,12.638-8.859,13.142-12.306
				C362.692,129.532,365,101.127,343.805,104.25z"/>
			<path style="fill:none;stroke:#263238;stroke-linecap:round;stroke-linejoin:round;stroke-miterlimit:10;" d="M341.217,124.488
				c0,1.306,1.086,5.021-1.469,7.615c-1.653,1.678,2.555,2.427,2.555,2.427"/>
			<path style="fill:none;stroke:#263238;stroke-linecap:round;stroke-linejoin:round;stroke-miterlimit:10;" d="M340.368,118.675
				c0,0-4.035-0.109-6.404,3.224"/>
			<path style="fill:none;stroke:#263238;stroke-linecap:round;stroke-linejoin:round;stroke-miterlimit:10;" d="M346.859,118.39
				c0,0,3.152-0.582,7.204,0.545"/>
			<path style="fill:#263238;" d="M336.799,127.557c0.147,0.767,0.715,1.304,1.269,1.198c0.554-0.106,0.885-0.814,0.738-1.581
				c-0.147-0.767-0.715-1.304-1.269-1.198C336.983,126.081,336.652,126.789,336.799,127.557z"/>
			<path style="fill:#263238;" d="M349.007,126.083c0.147,0.767,0.715,1.304,1.269,1.198s0.885-0.814,0.738-1.581
				c-0.147-0.767-0.715-1.304-1.269-1.198C349.191,124.608,348.86,125.316,349.007,126.083z"/>
			<path style="fill:none;stroke:#263238;stroke-linecap:round;stroke-linejoin:round;stroke-miterlimit:10;" d="M342.303,139.632
				c4.833-0.989,8.422-3.876,8.422-3.876s0.756,4.818-3.222,6.157c-3.051,1.026-4.546-2.43-4.546-2.43"/>
			<path style="fill:#263238;" d="M350.783,108.115c0,0,0,13.784,12.492,17.776l4.593-13.622l-22.549-11.472
				c-23.936,0.114-29.178,29.598-16.42,46.483C328.899,147.28,326.021,109.5,350.783,108.115z"/>
			<path style="fill:#FFFFFF;stroke:#263238;stroke-linecap:round;stroke-linejoin:round;stroke-miterlimit:10;" d="
				M360.679,126.687c-0.292-1.526,3.282-5.762,4.804-3.353c2.594,4.105,1.262,7.976-0.941,9.629
				c-0.987,0.74-2.205,2.076-3.225,0.992"/>
		</g>
		<path style="fill:#757575;stroke:#263238;stroke-linecap:round;stroke-linejoin:round;stroke-miterlimit:10;" d="M363.785,118.239
			c-7.491-0.727-6.996,17.517-0.51,18.724C370.575,138.322,374.555,119.284,363.785,118.239z"/>
		<path style="fill:#92E3A9;stroke:#263238;stroke-linecap:round;stroke-linejoin:round;stroke-miterlimit:10;" d="M364.349,122.708
			c0,0-1.038-21.171-23.98-20.897c0,0,3.467-2.697,10.092-1.014c6.625,1.683,17.41,6.733,17.408,21.911H364.349z"/>
		<path style="fill:#92E3A9;stroke:#263238;stroke-linecap:round;stroke-linejoin:round;stroke-miterlimit:10;" d="M365.564,120.76
			c-5.479-0.531-5.117,12.812-0.373,13.695C370.53,135.449,373.441,121.524,365.564,120.76z"/>
		<g style="opacity:0.2;">
			<path style="fill:none;stroke:#FFFFFF;stroke-linecap:round;stroke-linejoin:round;stroke-miterlimit:10;" d="M335.624,239.779
				c0,0-4.177,14.613-1.21,26.086"/>
			<path style="fill:none;stroke:#FFFFFF;stroke-linecap:round;stroke-linejoin:round;stroke-miterlimit:10;" d="M333.08,269.029
				c0,0-8.137-5.736-11.697-6.33"/>
			<path style="fill:none;stroke:#FFFFFF;stroke-linecap:round;stroke-linejoin:round;stroke-miterlimit:10;" d="M338.591,271.601
				c0,0-15.429-2.176-19.582,0"/>
			<path style="fill:none;stroke:#FFFFFF;stroke-linecap:round;stroke-linejoin:round;stroke-miterlimit:10;" d="M335.624,269.029
				c0,0,7.397-3.363,11.511-4.154"/>
			<path style="fill:none;stroke:#FFFFFF;stroke-linecap:round;stroke-linejoin:round;stroke-miterlimit:10;" d="M331.668,239.172
				c0,0-3.903,8.716,1.411,11.573"/>
			<path style="fill:none;stroke:#FFFFFF;stroke-linecap:round;stroke-linejoin:round;stroke-miterlimit:10;" d="M300.14,314.721
				c-0.209,0.791,5.075,3.165,5.075,3.165s-2.12,5.539-5.075,6.33"/>
			<path style="fill:none;stroke:#FFFFFF;stroke-linecap:round;stroke-linejoin:round;stroke-miterlimit:10;" d="M357.632,324.216
				c-2.161,5.802-7.964,10.022-7.964,10.022"/>
			<path style="fill:none;stroke:#FFFFFF;stroke-linecap:round;stroke-linejoin:round;stroke-miterlimit:10;" d="M296.657,362.721
				c0,0,7.358,7.912,8.558,10.813"/>
		</g>
		<g>
			<path style="fill:#BFBFBF;stroke:#263238;stroke-linecap:round;stroke-linejoin:round;stroke-miterlimit:10;" d="
				M391.132,259.139l4.48,37.387c0.12,1.001-0.394,1.971-1.29,2.433l-36.352,18.758c-1.221,0.63-2.696-0.143-2.873-1.506
				l-4.952-38.203c-0.133-1.028,0.405-2.027,1.337-2.481l36.816-17.933C389.523,256.998,390.97,257.787,391.132,259.139z"/>
			<path style="fill:#BFBFBF;stroke:#263238;stroke-linecap:round;stroke-linejoin:round;stroke-miterlimit:10;" d="
				M393.134,260.326l4.48,37.387c0.12,1.001-0.394,1.971-1.29,2.433l-36.352,18.758c-1.221,0.63-2.696-0.144-2.873-1.506
				l-4.952-38.203c-0.133-1.028,0.405-2.027,1.337-2.481l36.816-17.933C391.524,258.184,392.972,258.974,393.134,260.326z"/>
			<path style="fill:#92E3A9;stroke:#263238;stroke-linecap:round;stroke-linejoin:round;stroke-miterlimit:10;" d="M374.365,285.15
				c0-0.391-0.041-0.764-0.1-1.127c0.475-0.472,1.038-0.752,1.646-0.752c1.675,0,3.033,2.081,3.033,4.648s-1.358,4.648-3.033,4.648
				c-1.42,0-2.603-1.502-2.933-3.521C373.811,288.218,374.365,286.786,374.365,285.15z"/>
		</g>
		<path style="fill:#FFFFFF;stroke:#263238;stroke-linecap:round;stroke-linejoin:round;stroke-miterlimit:10;" d="M380.789,249.051
			l3.692,43.516c0,0-2.11,5.802-3.692,7.648c-1.582,1.846-4.436,11.367-5.91,13.2c-1.474,1.833,0.791,2.36,4.801-3.178
			c0,0,2.692,2.901,3.483,4.483s2.901-2.374,4.747-2.901c1.846-0.527,5.538-1.846,5.538-3.692c0-1.846,2.399-3.095,2.637-5.539
			s-2.374-11.604-2.374-11.604l1.055-40.241L380.789,249.051z"/>
		<path style="fill:#92E3A9;stroke:#263238;stroke-linecap:round;stroke-linejoin:round;stroke-miterlimit:10;" d="M397.608,211.835
			c1.365,13.026,0.245,28.776,0.245,28.776l-2.317,20.211c0,0,1.152,3.939,0.286,5.042c-2.901,3.692-9.231-0.725-14.242-4.417
			c-5.011-3.692-2-6.066-2-6.066s-0.901-7.648-2.638-12.396c-1.737-4.747-3.91-32.63-4.065-37.451c0,0-0.718-7.912-2.469-10.022
			c-1.751-2.11,12.235-17.937,16.447-18.462"/>
		<path style="fill:none;stroke:#263238;stroke-linecap:round;stroke-linejoin:round;stroke-miterlimit:10;" d="M303.778,156.743
			c0,0,3.169,15.227-1.185,28.316"/>
		<path style="fill:none;stroke:#263238;stroke-linecap:round;stroke-linejoin:round;stroke-miterlimit:10;" d="M366.848,232.785
			c0,0-9.058,4.661-19.712,2.024"/>
		<path style="fill:none;stroke:#263238;stroke-linecap:round;stroke-linejoin:round;stroke-miterlimit:10;" d="M330.101,152.172
			c0,0,0.752,20.146,14.907,21.326"/>
		<path style="fill:none;stroke:#263238;stroke-linecap:round;stroke-linejoin:round;stroke-miterlimit:10;" d="M293.857,150.172
			c0,0,1.218,6.156-2.738,8.21c-3.956,2.054,0-4.105,0-4.105"/>
		<path style="fill:none;stroke:#263238;stroke-linecap:round;stroke-linejoin:round;stroke-miterlimit:10;" d="M379.581,255.381
			c0,0,6.819,4.935,11.552,3.759"/>
		<path style="fill:none;stroke:#263238;stroke-linecap:round;stroke-linejoin:round;stroke-miterlimit:10;" d="M275.264,115.601
			c0,0,7.153,3.125,9.13,2.617"/>
		<g>
			<g>
				<path style="fill:#263238;" d="M324.156,199.958l0.021,0.004l2.021-5.07l1.619,0.382l-1.746,7.402l-1.1-0.26l1.252-5.309
					l-0.021-0.005l-2.035,5.124l-1.1-0.259l0.389-5.435l-0.021-0.005l-1.234,5.234l-1.015-0.239l1.745-7.401l1.618,0.381
					L324.156,199.958z"/>
				<path style="fill:#263238;" d="M328.148,197.227c0.279-1.186,1.063-1.715,2.205-1.445s1.607,1.094,1.328,2.277l-0.908,3.85
					c-0.279,1.184-1.063,1.714-2.205,1.444c-1.143-0.27-1.607-1.093-1.327-2.277L328.148,197.227z M328.387,201.424
					c-0.124,0.528,0.061,0.783,0.432,0.871c0.369,0.087,0.649-0.059,0.773-0.588l0.943-3.996c0.125-0.529-0.061-0.785-0.431-0.872
					c-0.37-0.087-0.649,0.06-0.774,0.587L328.387,201.424z"/>
				<path style="fill:#263238;" d="M333.427,198.751l-0.022-0.006l-1.264,5.361l-1.047-0.246l1.746-7.402l1.459,0.344l0.129,4.708
					l0.02,0.005l1.045-4.431l1.036,0.244l-1.746,7.402l-1.194-0.282L333.427,198.751z"/>
				<path style="fill:#263238;" d="M337.363,197.525l1.841,0.434c1.163,0.274,1.581,1.054,1.302,2.238l-0.883,3.743
					c-0.279,1.185-1.002,1.695-2.164,1.421l-1.841-0.435L337.363,197.525z M338.278,198.856l-1.247,5.287l0.656,0.155
					c0.369,0.087,0.636-0.052,0.76-0.58l0.908-3.849c0.125-0.529-0.052-0.771-0.422-0.858L338.278,198.856z"/>
				<path style="fill:#263238;" d="M343.685,206.83l-1.174-0.277l0.115-1.391l-1.428-0.337l-0.518,1.296l-1.068-0.252l2.931-7.122
					l1.703,0.401L343.685,206.83z M341.585,203.856l1.12,0.264l0.334-3.873l-0.022-0.005L341.585,203.856z"/>
				<path style="fill:#263238;" d="M345.375,204.638l-0.303-5.296l1.216,0.287l0.081,3.58l0.022,0.005l1.674-3.166l1.109,0.262
					l-2.636,4.603l-0.579,2.453l-1.163-0.274L345.375,204.638z"/>
			</g>
			<g>
				<path style="fill:#263238;" d="M330.703,184.197l1.164,0.274l-1.746,7.401l-1.163-0.273L330.703,184.197z"/>
			</g>
			<g>
				<path style="fill:#263238;" d="M342.405,186.651c-1.587-0.896-2.848-0.075-3.461,0.496c-0.318-0.775-1.122-2.05-2.938-1.901
					c-1.971,0.164-3.129,2.375-2.048,4.864c0.78,1.79,2.35,3.242,3.169,3.913c0.098,0.081,0.188,0.15,0.261,0.206
					c0.09-0.02,0.201-0.045,0.324-0.077c1.024-0.266,3.058-0.927,4.514-2.226C344.254,190.12,344.126,187.626,342.405,186.651z"/>
			</g>
		</g>
		<path style="fill:none;stroke:#263238;stroke-linecap:round;stroke-linejoin:round;stroke-miterlimit:10;" d="M281.495,91.329
			c0.923,1.788,1.977,4.293,1.582,5.085c-0.396,0.791-3.428,4.899-2.374,7.395"/>
		<path style="fill:none;stroke:#263238;stroke-linecap:round;stroke-linejoin:round;stroke-miterlimit:10;" d="M266.726,95.754
			l-1.056,3.033c0,0,1.446,0.923,2.635-0.527c1.189-1.451,3.563-0.844,3.563-0.844"/>
		<path style="fill:none;stroke:#263238;stroke-linecap:round;stroke-linejoin:round;stroke-miterlimit:10;" d="M274.374,91.329
			c0,0-4.648,2.958,0.89,2.315c3.31-0.384,4.614,0.622,4.565,0.838"/>
		<path style="fill:none;stroke:#263238;stroke-linecap:round;stroke-linejoin:round;stroke-miterlimit:10;" d="M270.473,92.326
			c0,0-2.033,1.603-0.847,2.545c1.186,0.942,3.579,0.562,4.055,0.505c1.236-0.148,2.967,0.742,2.967,0.742"/>
	</g>
</g>
<g id="Device">
	<g>
		<g>
			<path style="fill:#FFFFFF;stroke:#263238;stroke-linecap:round;stroke-linejoin:round;stroke-miterlimit:10;" d="
				M273.246,438.409H111.299c-5.115,0-9.262-4.147-9.262-9.262V95.675c0-5.115,4.147-9.262,9.262-9.262h161.947
				c5.115,0,9.262,4.147,9.262,9.262v333.472C282.508,434.262,278.361,438.409,273.246,438.409z"/>
			<g>
				<path style="fill:#92E3A9;stroke:#263238;stroke-linecap:round;stroke-linejoin:round;stroke-miterlimit:10;" d="
					M178.322,95.204c0,1.391-1.127,2.518-2.518,2.518c-1.39,0-2.518-1.127-2.518-2.518s1.127-2.518,2.518-2.518
					C177.195,92.686,178.322,93.814,178.322,95.204z"/>
				<path style="fill:#92E3A9;stroke:#263238;stroke-linecap:round;stroke-linejoin:round;stroke-miterlimit:10;" d="
					M211.258,95.204c0,0.872-0.707,1.578-1.579,1.578c-0.872,0-1.578-0.707-1.578-1.578c0-0.872,0.707-1.578,1.578-1.578
					C210.552,93.626,211.258,94.332,211.258,95.204z"/>
				<path style="fill:#92E3A9;stroke:#263238;stroke-linecap:round;stroke-linejoin:round;stroke-miterlimit:10;" d="
					M202.442,96.095h-19.176c-0.41,0-0.742-0.332-0.742-0.742v-0.297c0-0.41,0.332-0.742,0.742-0.742h19.176
					c0.41,0,0.742,0.332,0.742,0.742v0.297C203.184,95.763,202.852,96.095,202.442,96.095z"/>
			</g>
			<path style="opacity:0.4;fill:#92E3A9;" d="M277.286,98.304v329.059c0,3.362-2.725,6.086-6.087,6.086H113.345
				c-3.362,0-6.087-2.725-6.087-6.086V98.304c0-3.361,2.725-6.086,6.087-6.086h32.407c2.133,0,4.042,1.326,4.786,3.325l1.377,3.699
				c0.744,1.999,2.653,3.325,4.786,3.325h71.141c2.133,0,4.042-1.326,4.786-3.325l1.377-3.699c0.744-1.999,2.653-3.325,4.786-3.325
				H271.2C274.561,92.218,277.286,94.943,277.286,98.304z"/>
			<path style="fill:#92E3A9;" d="M277.291,408.192v19.172c0,3.361-2.725,6.086-6.087,6.086H113.35
				c-3.361,0-6.087-2.725-6.087-6.086v-19.172H277.291z"/>
			<path style="fill:#92E3A9;" d="M277.291,98.305v15.126H107.264V98.305c0-3.361,2.725-6.087,6.087-6.087h32.402
				c2.137,0,4.046,1.321,4.79,3.325l1.368,3.698c0.744,1.993,2.653,3.325,4.79,3.325h71.142c2.137,0,4.046-1.333,4.79-3.325
				l1.369-3.698c0.744-2.005,2.653-3.325,4.79-3.325h32.414C274.566,92.219,277.291,94.944,277.291,98.305z"/>
			<path style="fill:none;stroke:#263238;stroke-linecap:round;stroke-linejoin:round;stroke-miterlimit:10;" d="M277.286,98.258
				v329.059c0,3.362-2.725,6.087-6.087,6.087H113.345c-3.362,0-6.087-2.725-6.087-6.087V98.258c0-3.362,2.725-6.087,6.087-6.087
				h32.407c2.133,0,4.042,1.326,4.786,3.325l1.377,3.698c0.744,1.999,2.653,3.325,4.786,3.325h71.141
				c2.133,0,4.042-1.326,4.786-3.325l1.377-3.698c0.744-1.999,2.653-3.325,4.786-3.325H271.2
				C274.561,92.172,277.286,94.897,277.286,98.258z"/>
		</g>
		<g>
			<path style="fill:#263238;" d="M228.059,330.239h-71.573c-6.664,0-12.066-5.402-12.066-12.066v-4.839
				c0-6.664,5.402-12.066,12.066-12.066h71.573c6.664,0,12.066,5.402,12.066,12.066v4.839
				C240.125,324.837,234.723,330.239,228.059,330.239z"/>
			<g>
				<path style="fill:#FFFFFF;" d="M168.557,312.256v1.793c0,2.206-1.064,3.408-3.231,3.408h-1.024v5.181h-2.167v-13.789h3.191
					C167.493,308.849,168.557,310.05,168.557,312.256z M164.302,310.819v4.669h1.024c0.689,0,1.064-0.315,1.064-1.301v-2.068
					c0-0.984-0.375-1.3-1.064-1.3H164.302z"/>
				<path style="fill:#FFFFFF;" d="M171.631,308.849v10.638c0,0.984,0.433,1.339,1.123,1.339c0.689,0,1.123-0.355,1.123-1.339
					v-10.638h2.049v10.499c0,2.207-1.103,3.468-3.231,3.468c-2.127,0-3.23-1.261-3.23-3.468v-10.499H171.631z"/>
				<path style="fill:#FFFFFF;" d="M181.936,322.638c-0.118-0.355-0.197-0.571-0.197-1.694v-2.167c0-1.28-0.433-1.753-1.418-1.753
					h-0.749v5.614h-2.167v-13.789h3.27c2.246,0,3.211,1.044,3.211,3.171v1.084c0,1.418-0.453,2.324-1.418,2.777v0.039
					c1.084,0.453,1.438,1.478,1.438,2.916v2.127c0,0.67,0.02,1.163,0.236,1.675H181.936z M179.572,310.819v4.235h0.847
					c0.808,0,1.3-0.354,1.3-1.458v-1.359c0-0.984-0.335-1.418-1.103-1.418H179.572z"/>
				<path style="fill:#FFFFFF;" d="M191.609,317.497v1.832c0,2.206-1.103,3.467-3.23,3.467c-2.127,0-3.23-1.261-3.23-3.467v-7.17
					c0-2.207,1.103-3.468,3.23-3.468c2.127,0,3.23,1.261,3.23,3.468v1.339h-2.048v-1.477c0-0.984-0.434-1.359-1.123-1.359
					c-0.69,0-1.123,0.375-1.123,1.359v7.446c0,0.985,0.434,1.34,1.123,1.34c0.689,0,1.123-0.355,1.123-1.34v-1.97H191.609z"/>
				<path style="fill:#FFFFFF;" d="M195.098,322.638h-2.167v-13.789h2.167v5.909h2.462v-5.909h2.206v13.789h-2.206v-5.91h-2.462
					V322.638z"/>
				<path style="fill:#FFFFFF;" d="M208.357,322.638h-2.186l-0.374-2.502h-2.659l-0.374,2.502h-1.989l2.206-13.789h3.172
					L208.357,322.638z M203.413,318.265h2.088l-1.024-6.974h-0.039L203.413,318.265z"/>
				<path style="fill:#FFFFFF;" d="M212.279,308.691c2.107,0,3.191,1.261,3.191,3.468v0.433h-2.048v-0.571
					c0-0.984-0.394-1.359-1.083-1.359c-0.689,0-1.083,0.375-1.083,1.359c0,1.005,0.433,1.754,1.852,2.994
					c1.813,1.596,2.384,2.738,2.384,4.315c0,2.206-1.104,3.467-3.231,3.467c-2.128,0-3.23-1.261-3.23-3.467v-0.847h2.049v0.984
					c0,0.985,0.433,1.34,1.123,1.34c0.689,0,1.123-0.355,1.123-1.34c0-1.004-0.434-1.753-1.852-2.994
					c-1.813-1.596-2.384-2.738-2.384-4.314C209.088,309.952,210.171,308.691,212.279,308.691z"/>
				<path style="fill:#FFFFFF;" d="M218.9,314.66h2.974v1.971H218.9v4.038h3.743v1.97h-5.91v-13.789h5.91v1.97H218.9V314.66z"/>
			</g>
		</g>
		<g>
			<g>
				<defs>
					<path id="XMLID_678_" d="M212.291,253.631h-40.037l0.996-0.408c4.838-1.981,7.995-6.651,8.031-11.861V226.62h21.981v14.646
						c0,5.246,3.169,9.964,8.031,11.957L212.291,253.631z"/>
				</defs>
				<use xlink:href="#XMLID_678_"  style="overflow:visible;fill:#FFFFFF;"/>
				<clipPath id="XMLID_00000102525219190136817170000015880314712373801886_">
					<use xlink:href="#XMLID_678_"  style="overflow:visible;"/>
				</clipPath>
				<path style="opacity:0.3;clip-path:url(#XMLID_00000102525219190136817170000015880314712373801886_);fill-opacity:0.7;" d="
					M203.263,226.62v12.81c-7.251,1.537-15.114,1.969-21.981,1.933V226.62H203.263z"/>
				
					<use xlink:href="#XMLID_678_"  style="overflow:visible;fill:none;stroke:#263238;stroke-linecap:round;stroke-linejoin:round;stroke-miterlimit:10;"/>
			</g>
			<path style="fill:#FFFFFF;stroke:#263238;stroke-linecap:round;stroke-linejoin:round;stroke-miterlimit:10;" d="M237.006,234.53
				h-89.467c-1.655,0-2.996-1.342-2.996-2.997v-65.182c0-1.655,1.342-2.997,2.996-2.997h89.467c1.655,0,2.996,1.342,2.996,2.997
				v65.182C240.002,233.188,238.661,234.53,237.006,234.53z"/>
			<g>
				<defs>
					<rect id="XMLID_677_" x="148.34" y="168.744" width="87.865" height="60.397"/>
				</defs>
				<use xlink:href="#XMLID_677_"  style="overflow:visible;fill:#BFBFBF;"/>
				<clipPath id="XMLID_00000040574900486895841190000011161195514899680447_">
					<use xlink:href="#XMLID_677_"  style="overflow:visible;"/>
				</clipPath>
				<path style="opacity:0.4;clip-path:url(#XMLID_00000040574900486895841190000011161195514899680447_);fill:#FFFFFF;" d="
					M209.374,168.744c0,0-21.861,41.261-61.034,46.387v-46.387H209.374z"/>
				<path style="opacity:0.4;clip-path:url(#XMLID_00000040574900486895841190000011161195514899680447_);fill:#FFFFFF;" d="
					M236.205,190.077v39.064h-42.306C200.37,207.88,222.183,195.851,236.205,190.077z"/>
				
					<use xlink:href="#XMLID_677_"  style="overflow:visible;fill:none;stroke:#263238;stroke-linecap:round;stroke-linejoin:round;stroke-miterlimit:10;"/>
			</g>
			<path style="fill:#FFFFFF;stroke:#263238;stroke-linecap:round;stroke-linejoin:round;stroke-miterlimit:10;" d="
				M212.482,251.137h-40.419c-1.079,0-1.953,0.875-1.953,1.953v3.719h44.326v-3.719
				C214.436,252.012,213.561,251.137,212.482,251.137z"/>
		</g>
		<g>
			
				<rect x="136.073" y="268.97" style="fill:#BFBFBF;stroke:#263238;stroke-linecap:round;stroke-linejoin:round;stroke-miterlimit:10;" width="19.947" height="19.947"/>
			
				<rect x="159.186" y="268.97" style="fill:#BFBFBF;stroke:#263238;stroke-linecap:round;stroke-linejoin:round;stroke-miterlimit:10;" width="19.947" height="19.947"/>
			
				<rect x="182.299" y="268.97" style="fill:#BFBFBF;stroke:#263238;stroke-linecap:round;stroke-linejoin:round;stroke-miterlimit:10;" width="19.947" height="19.947"/>
			
				<rect x="205.412" y="268.97" style="fill:#BFBFBF;stroke:#263238;stroke-linecap:round;stroke-linejoin:round;stroke-miterlimit:10;" width="19.947" height="19.947"/>
			
				<rect x="228.525" y="268.97" style="fill:#BFBFBF;stroke:#263238;stroke-linecap:round;stroke-linejoin:round;stroke-miterlimit:10;" width="19.947" height="19.947"/>
		</g>
		<g>
			<polyline style="fill:none;stroke:#263238;stroke-linecap:round;stroke-linejoin:round;stroke-miterlimit:10;" points="
				253.208,281.925 256.189,278.943 253.208,275.962 			"/>
			<polyline style="fill:none;stroke:#263238;stroke-linecap:round;stroke-linejoin:round;stroke-miterlimit:10;" points="
				131.337,275.962 128.355,278.943 131.337,281.925 			"/>
		</g>
		<g>
			<polygon style="fill:#92E3A9;stroke:#263238;stroke-linecap:round;stroke-linejoin:round;stroke-miterlimit:10;" points="
				236.547,149.901 241.042,148.948 243.469,152.849 248.059,153.044 249.44,157.426 253.837,158.756 254.085,163.343 
				258.013,165.725 257.112,170.23 260.325,173.515 258.332,177.654 260.627,181.634 257.667,185.148 258.9,189.574 
				255.159,192.241 255.253,196.834 250.966,198.487 249.915,202.96 245.352,203.495 243.221,207.565 238.668,206.949 
				235.592,210.361 231.336,208.632 227.508,211.172 223.815,208.439 219.476,209.947 216.579,206.382 212.001,206.763 
				210.081,202.589 205.552,201.82 204.731,197.3 200.535,195.429 200.865,190.847 197.266,187.991 198.724,183.634 
				195.949,179.973 198.445,176.117 196.667,171.88 200.044,168.765 199.375,164.22 203.421,162.042 203.903,157.474 
				208.363,156.371 209.967,152.066 214.561,152.107 217.185,148.335 221.625,149.517 225.104,146.517 229.11,148.766 
				233.227,146.726 			"/>
			<g>
				<g>
					<path style="fill:#FFFFFF;" d="M212.106,178.62l-0.598,2.102c-0.46,1.617,0.086,2.401,1.218,2.722
						c1.132,0.322,2.009-0.058,2.468-1.674l1.416-4.979c0.46-1.617-0.077-2.433-1.209-2.755c-1.132-0.322-2.017,0.091-2.477,1.707
						l-0.193,0.679l-3.363-0.956l4.379-12.943l9.377,2.666l-0.919,3.234l-6.208-1.765l-1.826,5.317l0.064,0.018
						c0.95-0.883,2.118-1.18,3.54-0.775c2.619,0.745,3.421,2.964,2.474,6.295l-1.434,5.044c-1.03,3.622-3.428,5.176-6.921,4.183
						c-3.492-0.993-4.714-3.577-3.684-7.198l0.533-1.875L212.106,178.62z"/>
					<path style="fill:#FFFFFF;" d="M224.23,171.373c1.03-3.621,3.525-5.148,7.017-4.155c3.492,0.993,4.811,3.604,3.782,7.225
						l-3.346,11.769c-1.03,3.621-3.525,5.148-7.017,4.156c-3.492-0.993-4.811-3.604-3.781-7.226L224.23,171.373z M224.375,184.38
						c-0.46,1.617,0.077,2.433,1.209,2.754c1.132,0.322,2.018-0.09,2.477-1.706l3.475-12.222c0.46-1.617-0.077-2.433-1.209-2.755
						c-1.132-0.322-2.018,0.091-2.478,1.707L224.375,184.38z"/>
				</g>
				<g>
					<path style="fill:#FFFFFF;" d="M238.531,171.56c0.384-1.351,1.292-1.904,2.586-1.536c1.295,0.368,1.776,1.316,1.392,2.667
						l-1.227,4.316c-0.384,1.351-1.292,1.904-2.587,1.536c-1.295-0.368-1.775-1.316-1.391-2.667L238.531,171.56z M238.591,176.343
						c-0.165,0.582,0.009,0.895,0.441,1.018c0.413,0.117,0.745-0.052,0.911-0.634l1.28-4.503c0.165-0.582-0.028-0.901-0.441-1.018
						c-0.431-0.123-0.745,0.052-0.91,0.634L238.591,176.343z M246.27,171.59l1.22,0.347l-8.914,11.663l-1.22-0.347L246.27,171.59z
						 M243.677,178.215c0.384-1.351,1.292-1.904,2.587-1.536s1.776,1.316,1.392,2.667l-1.227,4.316
						c-0.384,1.351-1.292,1.904-2.587,1.536c-1.295-0.368-1.776-1.316-1.392-2.667L243.677,178.215z M243.737,182.999
						c-0.165,0.582,0.009,0.895,0.441,1.018c0.413,0.117,0.745-0.052,0.91-0.634l1.28-4.503c0.165-0.582-0.028-0.901-0.441-1.018
						c-0.432-0.123-0.745,0.052-0.91,0.634L243.737,182.999z"/>
				</g>
				<g>
					<path style="fill:#FFFFFF;" d="M233.815,186.634c0.346-1.216,1.184-1.728,2.355-1.395c1.173,0.333,1.615,1.21,1.27,2.426
						l-1.123,3.951c-0.346,1.216-1.183,1.728-2.356,1.395c-1.172-0.333-1.615-1.21-1.269-2.425L233.815,186.634z M233.863,191.001
						c-0.154,0.542,0.026,0.817,0.406,0.925c0.38,0.108,0.678-0.03,0.832-0.573l1.166-4.103c0.154-0.542-0.026-0.817-0.406-0.925
						c-0.379-0.108-0.677,0.03-0.831,0.573L233.863,191.001z"/>
					<path style="fill:#FFFFFF;" d="M238.962,189.775l1.542,0.438l-0.309,1.085l-1.542-0.438l-0.892,3.137l-1.194-0.339l2.16-7.598
						l3.159,0.898l-0.309,1.085l-1.965-0.559L238.962,189.775z"/>
					<path style="fill:#FFFFFF;" d="M242.696,190.837l1.542,0.438l-0.309,1.085l-1.542-0.438l-0.892,3.137l-1.194-0.339l2.16-7.598
						l3.159,0.898l-0.309,1.085l-1.965-0.559L242.696,190.837z"/>
				</g>
			</g>
		</g>
		<rect x="118.184" y="343.713" style="fill:#92E3A9;" width="148.177" height="13.26"/>
		<g>
			<g>
				<path style="fill:#92E3A9;" d="M234.357,368.53H126.178c-0.656,0-1.187-0.531-1.187-1.187v-0.476
					c0-0.655,0.531-1.187,1.187-1.187h108.178c0.656,0,1.187,0.531,1.187,1.187v0.476
					C235.543,367.998,235.012,368.53,234.357,368.53z"/>
				<path style="fill:#92E3A9;" d="M219.951,377.078h-93.772c-0.656,0-1.187-0.531-1.187-1.187v-0.476
					c0-0.655,0.531-1.187,1.187-1.187h93.772c0.655,0,1.187,0.531,1.187,1.187v0.476
					C221.137,376.547,220.606,377.078,219.951,377.078z"/>
				<path style="fill:#92E3A9;" d="M211.309,385.627h-84.893c-0.787,0-1.425-0.638-1.425-1.425l0,0c0-0.787,0.638-1.425,1.425-1.425
					h84.893c0.787,0,1.425,0.638,1.425,1.425l0,0C212.734,384.989,212.096,385.627,211.309,385.627z"/>
				<path style="fill:#92E3A9;" d="M224.753,394.176h-98.574c-0.656,0-1.187-0.531-1.187-1.187v-0.476
					c0-0.655,0.531-1.187,1.187-1.187h98.574c0.656,0,1.187,0.531,1.187,1.187v0.476
					C225.939,393.644,225.408,394.176,224.753,394.176z"/>
			</g>
			<g>
				<path style="fill:#92E3A9;" d="M258.367,368.53h-12.138c-0.656,0-1.187-0.531-1.187-1.187v-0.476
					c0-0.655,0.531-1.187,1.187-1.187h12.138c0.655,0,1.187,0.531,1.187,1.187v0.476C259.554,367.998,259.022,368.53,258.367,368.53
					z"/>
				<path style="fill:#92E3A9;" d="M258.367,377.078h-9.737c-0.656,0-1.187-0.531-1.187-1.187v-0.476
					c0-0.655,0.531-1.187,1.187-1.187h9.737c0.655,0,1.187,0.531,1.187,1.187v0.476
					C259.554,376.547,259.022,377.078,258.367,377.078z"/>
				<path style="fill:#92E3A9;" d="M258.367,385.627h-13.339c-0.656,0-1.187-0.531-1.187-1.187v-0.476
					c0-0.655,0.531-1.187,1.187-1.187h13.339c0.655,0,1.187,0.531,1.187,1.187v0.476
					C259.554,385.096,259.022,385.627,258.367,385.627z"/>
				<path style="fill:#92E3A9;" d="M258.367,394.176h-3.734c-0.655,0-1.187-0.531-1.187-1.187v-0.476
					c0-0.655,0.531-1.187,1.187-1.187h3.734c0.655,0,1.187,0.531,1.187,1.187v0.476
					C259.554,393.644,259.022,394.176,258.367,394.176z"/>
			</g>
		</g>
		<path style="fill:#92E3A9;" d="M249.682,138.402h-114.82c-2.107,0-3.816-1.708-3.816-3.816v-1.53c0-2.107,1.708-3.816,3.816-3.816
			h114.82c2.107,0,3.816,1.708,3.816,3.816v1.53C253.498,136.693,251.79,138.402,249.682,138.402z"/>
		<polygon style="fill:#FFFFFF;stroke:#263238;stroke-linecap:round;stroke-linejoin:round;stroke-miterlimit:10;" points="
			250.826,328.692 232.947,321.647 239.992,339.526 242.769,333.242 245.822,336.295 247.595,334.522 244.542,331.469 		"/>
	</g>
</g>
<g id="Stuff">
	<g>
		<path style="fill:none;stroke:#263238;stroke-linecap:round;stroke-linejoin:round;stroke-miterlimit:10;" d="M64.002,407.932
			c0,0-3.232,4.841-4.347,12.135"/>
		<polygon style="fill:#92E3A9;stroke:#263238;stroke-linecap:round;stroke-linejoin:round;stroke-miterlimit:10;" points="
			105.771,374.845 97.969,371.457 101.705,362.853 107.117,361.067 109.507,366.241 		"/>
		<path style="fill:none;stroke:#263238;stroke-linecap:round;stroke-linejoin:round;stroke-miterlimit:10;" d="M107.117,361.067
			c2.037-3.727,8.982-10.593,13.817-8.742"/>
		<polygon style="fill:#92E3A9;stroke:#263238;stroke-linecap:round;stroke-linejoin:round;stroke-miterlimit:10;" points="
			260.679,415.434 266.719,421.423 260.114,428.083 254.423,427.783 254.075,422.094 		"/>
		<path style="fill:none;stroke:#263238;stroke-linecap:round;stroke-linejoin:round;stroke-miterlimit:10;" d="M254.423,427.783
			c0,0-6.408,9.005-13.342,8.181"/>
		<polygon style="fill:#92E3A9;stroke:#263238;stroke-linecap:round;stroke-linejoin:round;stroke-miterlimit:10;" points="
			458.59,386.137 454.405,393.542 446.239,388.927 445.029,383.358 450.424,381.522 		"/>
		<path style="fill:none;stroke:#263238;stroke-linecap:round;stroke-linejoin:round;stroke-miterlimit:10;" d="M445.029,383.358
			c0,0-6.463,0.437-10.18-9.625"/>
		<path style="fill:none;stroke:#263238;stroke-linecap:round;stroke-linejoin:round;stroke-miterlimit:10;" d="M430.998,422.657
			c0,0-0.813-7.541-4.273-11.505"/>
		<g>
			<g>
				<defs>
					<rect id="XMLID_679_" x="366.332" y="399.77" width="62.723" height="38.465"/>
				</defs>
				<use xlink:href="#XMLID_679_"  style="overflow:visible;fill:#BFBFBF;"/>
				<clipPath id="XMLID_00000092430239519844853600000014065641129795616132_">
					<use xlink:href="#XMLID_679_"  style="overflow:visible;"/>
				</clipPath>
				
					<polygon style="opacity:0.2;clip-path:url(#XMLID_00000092430239519844853600000014065641129795616132_);fill-opacity:0.7;" points="
					376.332,399.77 402.945,408.242 402.945,438.234 429.055,438.234 429.055,399.77 				"/>
				
					<rect x="402.693" y="399.237" style="opacity:0.2;clip-path:url(#XMLID_00000092430239519844853600000014065641129795616132_);fill-opacity:0.7;" width="26.362" height="38.998"/>
				
					<use xlink:href="#XMLID_679_"  style="overflow:visible;fill:none;stroke:#263238;stroke-linecap:round;stroke-linejoin:round;stroke-miterlimit:10;"/>
			</g>
			<polyline style="fill:none;stroke:#263238;stroke-linecap:round;stroke-linejoin:round;stroke-miterlimit:10;" points="
				388.816,417.872 387.319,419.79 402.945,438.237 			"/>
			<polyline style="fill:none;stroke:#263238;stroke-linecap:round;stroke-linejoin:round;stroke-miterlimit:10;" points="
				402.945,429.569 402.945,399.77 390.494,415.722 			"/>
			
				<line style="fill:none;stroke:#263238;stroke-linecap:round;stroke-linejoin:round;stroke-miterlimit:10;" x1="402.945" y1="433.344" x2="402.945" y2="435.663"/>
			
				<line style="fill:none;stroke:#263238;stroke-linecap:round;stroke-linejoin:round;stroke-miterlimit:10;" x1="369.518" y1="433.693" x2="366.332" y2="438.234"/>
			<polyline style="fill:none;stroke:#263238;stroke-linecap:round;stroke-linejoin:round;stroke-miterlimit:10;" points="
				376.985,416.253 379.272,419.79 370.997,431.584 			"/>
			
				<line style="fill:none;stroke:#263238;stroke-linecap:round;stroke-linejoin:round;stroke-miterlimit:10;" x1="371.295" y1="407.449" x2="375.421" y2="413.832"/>
			
				<line style="fill:none;stroke:#263238;stroke-linecap:round;stroke-linejoin:round;stroke-miterlimit:10;" x1="366.332" y1="399.77" x2="368.973" y2="403.856"/>
		</g>
		<g>
			<g>
				<defs>
					<rect id="XMLID_680_" x="376.332" y="370.793" width="62.723" height="30.303"/>
				</defs>
				<use xlink:href="#XMLID_680_"  style="overflow:visible;fill:#999999;"/>
				<clipPath id="XMLID_00000180337957847886631730000000879811417835176338_">
					<use xlink:href="#XMLID_680_"  style="overflow:visible;"/>
				</clipPath>
				
					<rect x="412.945" y="370.791" style="opacity:0.2;clip-path:url(#XMLID_00000180337957847886631730000000879811417835176338_);fill-opacity:0.7;" width="26.11" height="30.305"/>
				
					<use xlink:href="#XMLID_680_"  style="overflow:visible;fill:none;stroke:#263238;stroke-linecap:round;stroke-linejoin:round;stroke-miterlimit:10;"/>
			</g>
			<polyline style="fill:none;stroke:#263238;stroke-linecap:round;stroke-linejoin:round;stroke-miterlimit:10;" points="
				398.816,386.835 397.319,385.324 412.945,370.791 			"/>
			<polyline style="fill:none;stroke:#263238;stroke-linecap:round;stroke-linejoin:round;stroke-miterlimit:10;" points="
				412.945,377.62 412.945,401.096 400.494,388.529 			"/>
			
				<line style="fill:none;stroke:#263238;stroke-linecap:round;stroke-linejoin:round;stroke-miterlimit:10;" x1="412.945" y1="374.646" x2="412.945" y2="372.819"/>
			
				<line style="fill:none;stroke:#263238;stroke-linecap:round;stroke-linejoin:round;stroke-miterlimit:10;" x1="379.518" y1="374.371" x2="376.332" y2="370.793"/>
			<polyline style="fill:none;stroke:#263238;stroke-linecap:round;stroke-linejoin:round;stroke-miterlimit:10;" points="
				386.985,388.111 389.272,385.324 380.997,376.033 			"/>
			
				<line style="fill:none;stroke:#263238;stroke-linecap:round;stroke-linejoin:round;stroke-miterlimit:10;" x1="381.295" y1="395.046" x2="385.421" y2="390.017"/>
			
				<line style="fill:none;stroke:#263238;stroke-linecap:round;stroke-linejoin:round;stroke-miterlimit:10;" x1="376.332" y1="401.096" x2="378.973" y2="397.877"/>
		</g>
		<g>
			<rect x="120.934" y="352.325" style="fill:#263238;" width="25.498" height="86.079"/>
			<g>
				<defs>
					<path id="XMLID_682_" d="M134.31,389.119c-2.1,15.86-4.47,35.63-4.47,49.28h-3.21l-9.12,0.01v-86.45
						c0-1.74,1.41-3.15,3.15-3.15h14.95C135.61,348.809,136.42,373.259,134.31,389.119z"/>
				</defs>
				<use xlink:href="#XMLID_682_"  style="overflow:visible;fill:#BFBFBF;"/>
				<clipPath id="XMLID_00000111187232023238814960000007098995095567030668_">
					<use xlink:href="#XMLID_682_"  style="overflow:visible;"/>
				</clipPath>
				<path style="opacity:0.2;clip-path:url(#XMLID_00000111187232023238814960000007098995095567030668_);" d="M126.63,348.809
					v89.59l-9.12,0.01v-86.45c0-1.74,1.41-3.15,3.15-3.15H126.63z"/>
				
					<use xlink:href="#XMLID_682_"  style="overflow:visible;fill:none;stroke:#263238;stroke-linecap:round;stroke-linejoin:round;stroke-miterlimit:10;"/>
			</g>
			
				<line style="fill:#BFBFBF;stroke:#263238;stroke-linecap:round;stroke-linejoin:round;stroke-miterlimit:10;" x1="126.634" y1="350.982" x2="126.634" y2="435.465"/>
			<path style="fill:#BFBFBF;stroke:#263238;stroke-linecap:round;stroke-linejoin:round;stroke-miterlimit:10;" d="
				M148.762,438.406v-86.45c0-1.74-1.41-3.15-3.15-3.15h-4.951c0,0-0.814,24.453,1.292,40.315c2.106,15.861,4.48,35.627,4.48,49.283
				L148.762,438.406z"/>
			<path style="fill:#263238;" d="M131.121,382.334L131.121,382.334c0.492,0,0.89-0.399,0.89-0.89V355.73
				c0-0.492-0.398-0.89-0.89-0.89l0,0c-0.492,0-0.89,0.398-0.89,0.89v25.714C130.231,381.935,130.629,382.334,131.121,382.334z"/>
		</g>
		<g>
			<g>
				<path style="fill:#BFBFBF;stroke:#263238;stroke-linecap:round;stroke-linejoin:round;stroke-miterlimit:10;" d="
					M224.403,435.409h-57.068c-0.909,0-1.808-0.746-2.009-1.667l-8.239-37.722c-0.201-0.921,0.373-1.667,1.281-1.667h57.068
					c0.909,0,1.808,0.746,2.009,1.667l8.239,37.722C225.885,434.663,225.312,435.409,224.403,435.409z"/>
				<path style="fill:#263238;" d="M225.403,435.409h-57.068c-0.909,0-1.808-0.746-2.009-1.667l-8.239-37.722
					c-0.201-0.921,0.373-1.667,1.281-1.667h57.068c0.909,0,1.808,0.746,2.009,1.667l8.239,37.722
					C226.885,434.663,226.312,435.409,225.403,435.409z"/>
				<polygon style="fill:#BFBFBF;" points="224.36,431.45 167.65,431.45 165.12,419.87 160.26,397.61 216.97,397.61 				"/>
			</g>
			<path style="fill:#BFBFBF;stroke:#263238;stroke-linecap:round;stroke-linejoin:round;stroke-miterlimit:10;" d="M251.48,435.14
				v1.67l-13.77,1.18h-68.86c-0.78,0-1.42-0.64-1.42-1.42v-1.43H251.48z"/>
			<path style="fill:#999999;stroke:#263238;stroke-linecap:round;stroke-linejoin:round;stroke-miterlimit:10;" d="M199.48,435.14
				v1.67l-13.77,1.18h-16.86c-0.78,0-1.42-0.64-1.42-1.42v-1.43H199.48z"/>
			<path style="opacity:0.4;fill:#FFFFFF;" d="M202.35,397.61c-5.23,7.98-16.02,18.66-37.23,22.26l-4.86-22.26H202.35z"/>
		</g>
		<g>
			<g>
				<defs>
					
						<rect id="XMLID_681_" x="62.002" y="407.932" transform="matrix(-1 -1.224647e-16 1.224647e-16 -1 186.7267 846.1676)" width="62.723" height="30.303"/>
				</defs>
				<use xlink:href="#XMLID_681_"  style="overflow:visible;fill:#757575;"/>
				<clipPath id="XMLID_00000067920532084400551290000000021522404891306901_">
					<use xlink:href="#XMLID_681_"  style="overflow:visible;"/>
				</clipPath>
				
					<rect x="62.002" y="407.932" transform="matrix(-1 -1.224647e-16 1.224647e-16 -1 150.1133 846.1696)" style="opacity:0.2;clip-path:url(#XMLID_00000067920532084400551290000000021522404891306901_);" width="26.11" height="30.305"/>
				
					<use xlink:href="#XMLID_681_"  style="overflow:visible;fill:none;stroke:#263238;stroke-linecap:round;stroke-linejoin:round;stroke-miterlimit:10;"/>
			</g>
			<polyline style="fill:none;stroke:#263238;stroke-linecap:round;stroke-linejoin:round;stroke-miterlimit:10;" points="
				102.241,422.193 103.738,423.704 88.112,438.237 			"/>
			<polyline style="fill:none;stroke:#263238;stroke-linecap:round;stroke-linejoin:round;stroke-miterlimit:10;" points="
				88.112,431.409 88.112,407.933 100.563,420.5 			"/>
			
				<line style="fill:none;stroke:#263238;stroke-linecap:round;stroke-linejoin:round;stroke-miterlimit:10;" x1="88.112" y1="434.383" x2="88.112" y2="436.209"/>
			
				<line style="fill:none;stroke:#263238;stroke-linecap:round;stroke-linejoin:round;stroke-miterlimit:10;" x1="121.539" y1="434.657" x2="124.725" y2="438.235"/>
			<polyline style="fill:none;stroke:#263238;stroke-linecap:round;stroke-linejoin:round;stroke-miterlimit:10;" points="
				114.071,420.918 111.785,423.704 120.059,432.996 			"/>
			
				<line style="fill:none;stroke:#263238;stroke-linecap:round;stroke-linejoin:round;stroke-miterlimit:10;" x1="119.761" y1="413.982" x2="115.636" y2="419.011"/>
			
				<line style="fill:none;stroke:#263238;stroke-linecap:round;stroke-linejoin:round;stroke-miterlimit:10;" x1="124.725" y1="407.932" x2="122.084" y2="411.151"/>
		</g>
		<g>
			<path style="fill:#BFBFBF;stroke:#263238;stroke-linecap:round;stroke-linejoin:round;stroke-miterlimit:10;" d="M106.05,407.71
				c-0.15-0.02-0.31-0.05-0.46-0.09c-1.96-0.51-3.88-2.94-5.39-4.52c-1.13-1.19-11.87-1.19-13,0c-1.51,1.58-3.43,4.01-5.39,4.52
				c-0.15,0.04-0.31,0.07-0.46,0.09c-3.8,0.4,1.85-13.75,3.69-14.66c1.85-0.9,4.22-0.81,4.5,0.35h8.32c0.28-1.16,2.65-1.25,4.5-0.35
				C104.2,393.96,109.85,408.11,106.05,407.71z"/>
			<path style="fill:#263238;" d="M105.59,407.62c-1.96-0.51-3.88-2.94-5.39-4.52c-1.13-1.19-11.87-1.19-13,0
				c-1.51,1.58-3.43,4.01-5.39,4.52c1.77-1.69,3.92-6.16,4.92-7.31c1.23-1.43,1.82-0.64,1.82-0.64h10.3c0,0,0.59-0.79,1.83,0.64
				C101.67,401.46,103.82,405.93,105.59,407.62z"/>
		</g>
		<polygon style="fill:#92E3A9;stroke:#263238;stroke-linecap:round;stroke-linejoin:round;stroke-miterlimit:10;" points="
			439.659,433.456 431.71,436.482 428.373,427.716 430.998,422.657 436.322,424.69 		"/>
		<polygon style="fill:#92E3A9;stroke:#263238;stroke-linecap:round;stroke-linejoin:round;stroke-miterlimit:10;" points="
			62.009,433.362 53.647,431.809 55.359,422.587 60.233,419.634 63.722,424.141 		"/>
	</g>
</g>
</svg>
