<svg xmlns="http://www.w3.org/2000/svg" width="512" height="186" fill="none"><path fill="#777" d="M269.73 58.3c0 5.028-4.319 9.076-9.678 9.076-5.359 0-9.674-4.049-9.674-9.076s4.168-9.076 9.674-9.076c5.511.14 9.678 4.19 9.678 9.076Zm-39.893 18.294v2.234s-4.612-5.588-14.437-5.588c-16.223 0-28.877 11.591-28.877 27.649 0 15.919 12.506 27.648 28.877 27.648 9.973 0 14.437-5.725 14.437-5.725v2.373c0 1.117.895 1.953 2.085 1.953h12.055V74.632h-12.055c-1.19.004-2.085.984-2.085 1.962Zm0 33.651c-2.23 3.073-6.697 5.726-12.055 5.726-9.525 0-16.82-5.586-16.82-15.082s7.295-15.081 16.82-15.081c5.211 0 9.973 2.792 12.055 5.724v18.713Zm23.072-35.609h14.288v52.506h-14.288V74.637Zm213.447-1.397c-9.824 0-14.44 5.588-14.44 5.588V49.364h-14.288v77.778h12.058c1.191 0 2.082-.978 2.082-1.956v-2.373s4.615 5.725 14.437 5.725c16.226 0 28.877-11.726 28.877-27.645 0-15.92-12.651-27.654-28.726-27.654Zm-2.382 42.591c-5.509 0-9.824-2.65-12.058-5.725V91.393c2.234-2.793 6.997-5.725 12.058-5.725 9.526 0 16.819 5.585 16.819 15.081 0 9.496-7.292 15.081-16.819 15.081Zm-33.787-19.827v31.278h-14.291V97.538c0-8.656-2.977-12.149-11.009-12.149-4.316 0-8.783 2.095-11.615 5.168v36.586h-14.286V74.638h11.309c1.191 0 2.085.978 2.085 1.956v2.234c4.168-4.05 9.674-5.588 15.18-5.588 6.253 0 11.463 1.678 15.631 5.029 5.059 3.91 6.996 8.936 6.996 17.734ZM344.3 73.24c-9.822 0-14.437 5.588-14.437 5.588V49.364h-14.288v77.778h12.054c1.191 0 2.085-.978 2.085-1.956v-2.373s4.616 5.725 14.437 5.725c16.226 0 28.877-11.726 28.877-27.645.149-15.921-12.502-27.654-28.728-27.654Zm-2.382 42.591c-5.507 0-9.822-2.65-12.055-5.725V91.393c2.233-2.793 6.996-5.725 12.055-5.725 9.528 0 16.82 5.585 16.82 15.081 0 9.496-7.292 15.081-16.82 15.081Zm-38.699-42.591c4.315 0 6.549.7 6.549.7v12.426s-11.908-3.77-19.349 4.19v36.725h-14.291V74.636h12.058c1.191 0 2.082.978 2.082 1.956v2.235c2.682-2.934 8.487-5.588 12.951-5.588Zm-148.398 49.154c-.744-1.675-1.489-3.49-2.232-5.027-1.193-2.512-2.384-4.888-3.423-7.121l-.149-.14c-10.272-20.947-21.284-42.17-32.896-63.114l-.446-.84a267.245 267.245 0 0 1-3.57-6.563c-1.49-2.515-2.977-5.166-5.359-7.68-4.763-5.586-11.61-8.66-18.903-8.66-7.444 0-14.14 3.074-19.05 8.379-2.234 2.512-3.873 5.165-5.36 7.68a296.293 296.293 0 0 1-3.57 6.564l-.448.84C47.954 67.655 36.791 88.879 26.52 109.825l-.15.277c-1.04 2.238-2.233 4.611-3.424 7.122a89.333 89.333 0 0 0-2.23 5.027c-1.937 5.166-2.533 10.054-1.787 15.083 1.638 10.473 9.078 19.267 19.35 23.18 3.871 1.537 7.89 2.235 12.057 2.235 1.19 0 2.678-.14 3.87-.281 4.913-.558 9.974-2.092 14.886-4.746 6.103-3.212 11.908-7.818 18.457-14.521 6.548 6.703 12.502 11.309 18.456 14.521 4.915 2.654 9.973 4.188 14.885 4.746 1.191.142 2.681.281 3.872.281 4.168 0 8.334-.698 12.055-2.235 10.42-3.913 17.712-12.846 19.351-23.18 1.182-4.887.587-9.772-1.347-14.941Zm-67.128 7.261c-8.038-9.495-13.249-18.432-15.033-25.97-.744-3.213-.894-6.005-.446-8.52.296-2.234 1.19-4.19 2.382-5.865 2.828-3.768 7.59-6.143 13.099-6.143s10.42 2.234 13.1 6.143c1.191 1.675 2.083 3.633 2.383 5.866.445 2.515.296 5.446-.447 8.519-1.792 7.399-7.002 16.337-15.038 25.97Zm59.387 6.564c-1.041 7.26-6.252 13.546-13.544 16.339-3.571 1.395-7.443 1.815-11.311 1.395-3.72-.42-7.444-1.537-11.311-3.63-5.359-2.795-10.717-7.121-16.97-13.546 9.823-11.31 15.777-21.645 18.01-30.859 1.043-4.33 1.193-8.238.744-11.87-.593-3.491-1.935-6.704-4.018-9.496-4.617-6.286-12.358-9.915-20.989-9.915-8.63 0-16.371 3.771-20.985 9.915-2.083 2.792-3.425 6.005-4.02 9.495-.594 3.633-.447 7.681.744 11.871 2.232 9.214 8.335 19.688 18.009 30.998-6.103 6.424-11.61 10.754-16.97 13.547-3.87 2.095-7.589 3.212-11.31 3.629-4.017.42-7.89-.139-11.312-1.395-7.292-2.792-12.503-9.078-13.544-16.339-.446-3.49-.15-6.98 1.34-10.891.445-1.397 1.191-2.792 1.935-4.468 1.042-2.234 2.23-4.61 3.423-6.983l.15-.277C45.42 92.93 56.434 71.706 67.895 51.041l.447-.84c1.192-2.093 2.383-4.327 3.573-6.423 1.19-2.234 2.53-4.33 4.168-6.146 3.125-3.348 7.292-5.165 11.907-5.165 4.616 0 8.782 1.817 11.908 5.165 1.639 1.82 2.977 3.916 4.168 6.146 1.193 2.096 2.384 4.33 3.572 6.423l.447.84a1802.806 1802.806 0 0 1 32.598 62.836v.14c1.192 2.237 2.233 4.748 3.424 6.986.744 1.672 1.489 3.067 1.935 4.465 1.188 3.627 1.634 7.12 1.038 10.75Z"/></svg>