<svg xmlns="http://www.w3.org/2000/svg" width="512" height="186" fill="none"><path fill="#777" d="m103.639 125.81-25.3-14.744c-3.555-2.064-8.1-.836-10.157 2.749a7.55 7.55 0 0 0-.959 4.476v28.813c0 4.117 3.317 7.464 7.41 7.464 4.083 0 7.4-3.346 7.4-7.464v-16.568l14.174 8.257c3.555 2.074 8.111.836 10.157-2.749 2.057-3.585.84-8.17-2.725-10.234ZM40.716 94.216a7.399 7.399 0 0 0-.943-3.735 7.318 7.318 0 0 0-2.687-2.74l-25.3-14.733a7.213 7.213 0 0 0-3.62-.977 7.275 7.275 0 0 0-6.3 3.661c-2.004 3.499-.808 7.985 2.66 10.006l14.584 8.485-14.584 8.496a7.233 7.233 0 0 0-3.382 4.444 7.326 7.326 0 0 0 .722 5.563 7.27 7.27 0 0 0 6.29 3.661 7.22 7.22 0 0 0 3.63-.978l25.3-14.732a7.335 7.335 0 0 0 2.672-2.718 7.414 7.414 0 0 0 .958-3.703Zm-23.19-31.648L42.827 77.3c2.951 1.727 6.592 1.163 8.918-1.13a7.468 7.468 0 0 0 2.391-5.497v-29.53c0-4.128-3.317-7.474-7.4-7.474-4.092 0-7.41 3.346-7.41 7.474v16.808l-14.368-8.366c-3.554-2.075-8.1-.848-10.157 2.738-2.057 3.585-.83 8.17 2.725 10.245ZM74.418 95.41c0 .565-.323 1.347-.722 1.76L63.67 107.286c-.399.402-1.185.728-1.745.728H59.37c-.56 0-1.346-.326-1.745-.728L47.588 97.171c-.399-.413-.722-1.195-.722-1.76v-2.575c0-.576.323-1.358.722-1.76l10.038-10.125c.399-.402 1.185-.728 1.745-.728h2.553c.56 0 1.346.326 1.745.728l10.027 10.125c.399.402.722 1.184.722 1.76v2.575Zm-8.95-1.238v-.109c0-.413-.238-.989-.528-1.293l-2.962-2.977c-.291-.304-.862-.543-1.282-.543h-.108c-.41 0-.98.24-1.282.543l-2.95 2.977c-.292.293-.529.87-.529 1.293v.109c0 .423.238 1 .528 1.292l2.951 2.988c.302.293.873.533 1.282.533h.108c.42 0 .99-.24 1.282-.533l2.962-2.988c.29-.293.527-.869.527-1.292ZM78.337 77.3l25.301-14.732c3.555-2.064 4.782-6.66 2.725-10.245-2.057-3.586-6.602-4.813-10.157-2.738l-14.174 8.257V41.143c0-4.128-3.317-7.474-7.4-7.474-4.093 0-7.41 3.346-7.41 7.474v28.943c-.14 1.5.15 3.064.959 4.476 2.057 3.585 6.602 4.813 10.157 2.738ZM47.9 110.198a7.314 7.314 0 0 0-5.073.869l-25.3 14.743c-3.555 2.064-4.783 6.649-2.726 10.234 2.057 3.597 6.603 4.824 10.157 2.749l14.369-8.365v16.676c0 4.118 3.317 7.464 7.41 7.464 4.082 0 7.4-3.346 7.4-7.463v-29.53c0-3.727-2.704-6.812-6.237-7.377Zm71.551-34.593c-2.047-3.596-6.603-4.824-10.157-2.749l-25.3 14.733c-2.424 1.412-3.76 3.998-3.717 6.627-.021 2.618 1.314 5.172 3.716 6.562l25.301 14.743c3.554 2.065 8.1.837 10.157-2.749 2.057-3.585.829-8.17-2.725-10.245L102.4 94.183l14.326-8.344c3.565-2.064 4.782-6.648 2.725-10.234Zm388.784 16.85v.284c0 1.39-1.153 2.422-2.574 2.422h-35.544c.065.848.173 1.673.345 2.488 1.648 7.768 8.24 13.548 16.07 13.613h2.068c.162 0 .323 0 .495-.011.151 0 .302-.01.453-.021.011 0 .022 0 .032-.011 2.596-.207 5.213-1.26 7.551-2.955h.011c.124-.091.246-.185.366-.283.022-.011.043-.032.075-.054l.313-.25c.043-.032.075-.065.118-.098.089-.069.175-.141.258-.217l.173-.141c.063-.067.131-.129.204-.185.065-.065.14-.13.205-.195a2.33 2.33 0 0 0 .162-.153c.086-.076.161-.152.247-.228.043-.043.086-.098.129-.141l.259-.261.118-.119.259-.294c.043-.032.075-.076.107-.119.098-.098.184-.196.27-.293.032-.044.075-.087.108-.131.086-.108.161-.206.247-.304l.13-.163c.075-.098.151-.185.215-.271.058-.08.116-.159.172-.24.054-.076.108-.141.162-.217.086-.119.172-.239.248-.358a20.746 20.746 0 0 0 .699-1.087s0-.011.011-.021c.043-.076.097-.142.151-.218.022-.032.043-.065.076-.087.032-.054.075-.087.107-.13l.097-.098c.043-.032.076-.065.119-.098.032-.032.064-.065.108-.087.057-.046.118-.086.183-.119a.962.962 0 0 1 .14-.087c.048-.02.094-.041.14-.065.043-.022.086-.033.119-.054.064-.022.118-.033.183-.055.032-.011.053-.021.086-.033.204-.043.42-.075.625-.075.226 0 .463.032.678.097h.022c.086.033.183.055.27.098.022.011.043.011.064.022.093.04.183.088.269.141l.043.022c1.185.869 1.551 2.39.83 3.639l-.011.011c-.084.139-.17.277-.259.413l-.064.098c-2.521 3.868-5.946 6.953-9.769 8.8-.086.033-.162.076-.248.119-.011 0-.032.012-.043.012a18.511 18.511 0 0 1-5.687 1.64c-.043 0-.086.011-.13.011a8.838 8.838 0 0 1-.516.054c-.097 0-.194.011-.302.022-.118 0-.247.011-.366.021-.237 0-.474.011-.711.011h-2.089c-11.956-.087-21.585-10.147-21.585-22.467 0-12.527 9.694-22.642 21.746-22.642.356 0 .711.011 1.066.022a20.804 20.804 0 0 1 11.331 4.052c.183.13.356.272.528.402.086.076.183.152.28.228.086.066.172.142.258.207 4.535 3.813 7.594 9.539 8.1 16.166l-.001.022Zm-37.773-2.411h32.172c-1.594-7.822-8.261-13.483-15.962-13.483-7.841 0-14.455 5.552-16.21 13.483Zm-53.101-17.926c.399.402.668.945.733 1.575 0 .087.011.174.011.26v39.906c0 1.423-1.185 2.607-2.585 2.607s-2.574-1.184-2.574-2.607v-5.302a22.203 22.203 0 0 1-3.232 3.227c-.032.033-.064.054-.097.087-.108.087-.22.17-.333.25-3.555 2.759-7.874 4.345-12.387 4.345-7.27 0-13.668-3.9-17.481-9.81-.032-.044-.075-.098-.108-.141-.108-.185-.215-.37-.334-.565-.075-.12-.14-.24-.215-.359-.075-.119-.14-.25-.205-.38a15.54 15.54 0 0 1-.312-.565c-.032-.065-.054-.13-.086-.196a23.301 23.301 0 0 1-2.434-9.387 20.577 20.577 0 0 1 0-2.303 23.41 23.41 0 0 1 2.434-9.398c.032-.054.054-.12.086-.184.1-.19.204-.38.312-.565.065-.13.13-.261.205-.38.064-.12.14-.24.215-.36l.334-.564.108-.141c3.813-5.91 10.211-9.81 17.481-9.81 4.911 0 9.554 1.813 13.248 4.975a21.87 21.87 0 0 1 2.801 2.847v-5.226c0-.087 0-.174.011-.261.064-.63.333-1.173.732-1.575v-.011c.043-.043.097-.076.14-.12l.043-.043c.032-.033.075-.054.108-.076.032-.022.064-.055.097-.076a.203.203 0 0 0 .064-.044c.054-.021.098-.054.151-.086.011 0 .022-.012.033-.012l.193-.097h.011c.153-.064.312-.111.474-.141.011 0 .033-.011.043-.011.065-.011.14-.022.215-.033.087 0 .173-.01.259-.01.097 0 .183.01.27.01l.215.033c.011 0 .022.01.043.01.162.031.321.079.474.142h.011c.064.032.129.065.183.098.022 0 .032.01.043.01a.969.969 0 0 0 .14.087c.022.022.054.033.075.044.032.021.065.054.097.076a.607.607 0 0 1 .097.076c.022.011.032.032.054.043.043.044.097.077.13.12l.009.01Zm-20.464 39.144c8.843 0 16.048-7.778 16.048-17.35 0-9.615-7.205-17.438-16.048-17.438-8.778 0-16.049 7.812-16.049 17.438 0 .304.011.597.022.89 0 .131.022.25.022.37.011.174.022.348.043.51.011.142.033.272.043.403.023.152.033.315.054.467.022.12.043.228.054.336.032.175.054.348.086.522.022.087.043.163.054.24l.129.608c.01.044.024.088.043.13 1.831 7.431 8.121 12.874 15.499 12.874ZM352.618 52.54h-.7c-.086 0-.183 0-.27.011-.097-.011-.183-.011-.28-.011-.247 0-.495 0-.743.011-.043 0-.097.01-.14.01-.194 0-.388.012-.582.033h-.107c-.205.022-.399.033-.593.055-.022.01-.043.01-.064.01-.215.033-.42.055-.614.087h-.022c-1.304.207-2.477.576-3.522 1.098 0 .01-.011.01-.022.01-.151.088-.313.174-.464.261-.032.011-.053.033-.085.055a7.41 7.41 0 0 0-.388.239c-.054.032-.097.076-.14.108-.108.065-.205.142-.313.218a3.188 3.188 0 0 1-.226.184l-.194.163c-.118.109-.226.207-.333.315l-.065.066c-.13.14-.258.271-.388.413-.022.032-.043.065-.064.086a8.565 8.565 0 0 0-.313.359c-.032.054-.075.108-.107.163a5.962 5.962 0 0 0-.238.315.378.378 0 0 1-.075.108c-.086.131-.172.261-.247.392-.011.021-.022.032-.032.054-.701 1.163-1.196 2.531-1.509 4.183 0 .021 0 .054-.011.076-.042.206-.075.423-.107.641-.011.065-.022.13-.022.196a9.723 9.723 0 0 0-.076.564c-.011.11-.022.218-.032.337-.022.152-.043.294-.054.456a83.78 83.78 0 0 0-.032.5c-.011.109-.011.218-.022.337l-.032.706c0 .066-.011.109-.011.163-.011.304-.011.62-.011.924v4.291h-5.364a2.648 2.648 0 0 0-.97.163 2.524 2.524 0 0 0-1.658 2.358c0 1.01.495 1.868 1.271 2.368.4.258.861.404 1.335.424h.022v.01h5.364v37.896c-.011.054 0 .098 0 .152v.098c.032.593.272 1.156.679 1.586l.011.011c.054.054.118.108.172.163.011.011.022.011.033.021.043.044.097.077.14.109.022.021.047.04.075.054a.174.174 0 0 0 .075.044c.431.278.932.425 1.443.424.083-.002.166-.009.248-.022a2.432 2.432 0 0 0 1.346-.576l.011-.011a.849.849 0 0 0 .14-.141c.012-.011.033-.022.043-.032.044-.044.076-.088.108-.12.409-.5.636-1.119.603-1.76V76.051h5.774v-.011h.022c1.529-.076 2.65-1.282 2.606-2.782v-.021c.011-.055 0-.109 0-.163v-.054a2.416 2.416 0 0 0-.678-1.5v-.01h-.011a1.865 1.865 0 0 0-.151-.142c-.022-.022-.043-.032-.054-.054-.043-.033-.075-.054-.119-.087l-.107-.076c-.022-.01-.054-.033-.076-.043a1.135 1.135 0 0 0-.161-.088.083.083 0 0 0-.043-.021 1.566 1.566 0 0 0-.194-.087c-.011-.011-.022-.011-.043-.022l-.194-.065c-.022 0-.043-.01-.064-.01-.065-.012-.119-.034-.184-.044-.032 0-.064 0-.097-.011-.043-.011-.097-.011-.15-.022h-.119c-.032 0-.065-.01-.097-.01h-5.859V66.36c.011-.217.011-.435.022-.641 0-.054 0-.12.011-.174 0-.185.011-.37.022-.543 0-.033.011-.076.011-.109.012-.203.03-.406.054-.608.204-2.119.657-3.455 1.131-4.27.011-.022.011-.033.022-.054.032-.055.075-.109.107-.163.026-.046.054-.09.086-.13.012-.023.033-.066.054-.088.052-.073.109-.142.173-.206.678-.772 1.734-1.239 3.263-1.423.022 0 .032-.011.065-.011.089-.013.179-.02.269-.022.043-.01.097-.01.14-.022.086 0 .162-.01.248-.01.064 0 .118-.011.194-.011.075-.011.15-.011.226-.011.075 0 .151-.011.226-.011h.56c.086 0 .162-.01.248-.022.097.011.194.022.29.022h.701c1.443 0 2.627-1.195 2.627-2.662 0-1.467-1.185-2.65-2.628-2.65Zm13.894.076s-.011-.011-.022-.011c-.053-.021-.097-.043-.161-.054a.78.78 0 0 0-.086-.033l-.13-.032c-.043-.011-.086-.033-.118-.033-.054-.011-.097-.022-.151-.022-.043-.01-.075-.01-.119-.021-.086-.011-.183-.011-.269-.011-1.4 0-2.585 1.184-2.585 2.596v58.864c0 1.423 1.185 2.607 2.585 2.607.086 0 .183 0 .269-.011.011 0 .033-.01.043-.01l.227-.033c.011 0 .032-.011.053-.011.065-.021.13-.032.194-.054.011 0 .022 0 .032-.011.991-.315 1.724-1.162 1.831-2.205.014-.09.021-.181.022-.272V54.996c0-.088-.011-.174-.022-.261-.097-.956-.72-1.75-1.593-2.119Zm-197.763 49.998c-.022-.152-.022-.293-.043-.434l-.032-.305c-.022-.119-.033-.228-.054-.347a18.838 18.838 0 0 1-.065-.337 2.564 2.564 0 0 0-.054-.272c-.032-.13-.054-.25-.086-.38-.022-.065-.043-.141-.065-.206a2.458 2.458 0 0 0-.129-.402c-.011-.055-.032-.109-.043-.153a7.839 7.839 0 0 0-.172-.445.606.606 0 0 1-.032-.087c-.076-.152-.141-.315-.216-.467-.011-.01-.011-.022-.022-.033-.613-1.249-1.486-2.292-2.552-3.172 0-.01 0-.01-.011-.01-.151-.12-.301-.25-.463-.37l-.022-.022c-.011 0-.021-.011-.032-.022-.097-.065-.194-.14-.28-.206-1.325-.945-2.79-1.695-4.922-2.52l-.097-.033c-.032-.022-.076-.033-.108-.054a94.654 94.654 0 0 0-3.737-1.315h-.011s-.011 0-.011-.011c-.021 0-.043-.01-.075-.022a9.497 9.497 0 0 0-.42-.14c-.087-.023-.151-.044-.216-.066-.431-.152-.872-.293-1.314-.446-.312-.108-.646-.216-1.045-.347-.107-.033-.366-.12-.581-.185-.011 0-.011-.01-.022-.01a17.951 17.951 0 0 0-.398-.131 62.656 62.656 0 0 1-2.715-.934c-1.227-.457-2.347-.946-3.263-1.532a.235.235 0 0 1-.054-.033c-1.249-.804-2.111-1.793-2.316-3.086l-.011-.01a2.462 2.462 0 0 1-.021-.272c-.011-.022-.011-.032-.011-.043-.01-.109-.01-.207-.01-.315 0-.152.01-.305.021-.446 0-.043 0-.076.011-.108l.032-.337c.011-.033.011-.066.022-.098.021-.12.043-.228.064-.348.011-.01.011-.032.022-.054a3.64 3.64 0 0 1 .107-.37v-.01c.561-1.684 1.885-2.934 3.447-3.814.108-.054.216-.108.313-.163.107-.054.204-.108.301-.152.16-.077.321-.15.485-.217.097-.044.183-.087.28-.12l.517-.195c.093-.034.186-.067.28-.098.172-.054.334-.108.506-.152.108-.033.205-.065.312-.087.162-.044.324-.076.474-.12l.324-.065c.172-.032.333-.065.484-.087.094-.009.188-.023.28-.043.19-.024.38-.042.571-.054.043-.011.086-.011.14-.022.237-.011.474-.022.7-.022.27 0 .539.011.797.022h.119c1.906.12 3.446.587 4.718 1.206.096.043.193.098.29.141.052.033.106.062.162.087.118.065.237.13.366.207l.065.032c.129.076.258.163.387.24.006.005.014.01.022.01.14.087.28.185.42.272 0 .01.011.01.011.021.14.087.269.174.398.272.048.04.098.076.151.108.302.228.776.598 1.206.957.047.027.091.06.13.097a20.18 20.18 0 0 0 1.044.826c.011.011.022.022.033.022l.097.065c.075.054.161.109.237.163.032.022.064.033.096.054l.227.13c.032.012.053.022.086.033.08.041.163.077.248.109.021.01.032.01.053.021.097.033.194.066.291.077l.011.01c.215.033.42.044.636-.01.021 0 .043-.011.064-.011.054-.011.119-.033.172-.044.022-.01.033-.021.054-.032a.155.155 0 0 0 .065-.022c.088-.043.175-.09.258-.141.022 0 .033-.011.043-.022.095-.063.185-.132.27-.206l.011-.011c.075-.065.14-.141.204-.218a1.05 1.05 0 0 0 .119-.184c.01-.011.021-.022.021-.033.452-.76.194-1.76-.603-2.846a.244.244 0 0 0-.043-.066l-.086-.12c-1.831-2.39-6-5.008-9.866-5.844-.022 0-.043 0-.065-.011-.162-.033-.334-.065-.495-.098a.631.631 0 0 1-.141-.021c-.14-.022-.279-.044-.419-.055a.85.85 0 0 0-.162-.021l-.399-.033c-.054-.011-.107-.011-.15-.022-.183 0-.356-.01-.528-.01-.28 0-.56 0-.829.01-.151 0-.302.011-.464.022-.107.01-.237.01-.344.01-.216.023-.42.033-.625.055a.92.92 0 0 0-.172.011c-.234.02-.468.045-.701.076h-.075c-.241.03-.482.066-.721.108h-.044c-.234.034-.467.074-.7.12-.01 0-.021.011-.043.011-.474.086-.945.191-1.411.315-.011 0-.011.011-.011.011-.226.054-.452.12-.678.184-.215.066-.42.142-.614.207-.021 0-.032.011-.054.011-.194.076-.388.141-.582.217a8.563 8.563 0 0 0-.603.261c-.021.01-.054.01-.075.033-.162.065-.334.151-.485.228-.043.021-.075.032-.107.054a6.083 6.083 0 0 0-.464.24c-.043.02-.075.043-.118.064-.14.076-.28.163-.42.25a.788.788 0 0 0-.129.076c-.183.109-.356.228-.528.337-.205.152-.409.293-.593.445-.021 0-.032.011-.032.022-.915.684-1.702 1.412-2.348 2.26-.021.032-.054.065-.075.098-.076.12-.162.228-.238.336l-.161.261a1.856 1.856 0 0 0-.118.196 5.512 5.512 0 0 0-.238.434c-.01.022-.021.033-.032.055-.581 1.162-.915 2.499-1.045 4.117 0 .022 0 .044-.01.065-.011.283-.033.566-.043.87 0 .228 0 .456.011.684v.098c.118 3.107 1.518 5.443 4.049 7.258.022.01.043.032.065.043l.323.228c.075.054.162.098.237.152.021.022.054.033.076.043 2.498 1.598 5.557 2.51 8.11 3.238 1.249.37 2.37.684 2.703.782.076.022.151.044.216.077 1.529.51 2.703.923 3.673 1.314.075.022.14.054.215.076.021.011.054.022.086.043.55.229 1.088.468 1.605.728.417.213.827.442 1.228.685 1.023.64 1.81 1.336 2.337 2.097a.193.193 0 0 1 .043.065.853.853 0 0 1 .13.206.83.83 0 0 1 .075.12c.033.052.062.106.086.163.032.054.054.12.086.174l.065.13c.022.065.054.13.075.206.011.033.033.077.043.12l.065.228c.012.036.023.072.032.109.023.078.041.158.054.239.012.035.02.071.022.108l.032.261a.299.299 0 0 1 .011.098c.011.13.021.25.021.38 0 .196-.011.381-.021.565 0 .055-.011.109-.011.163a2.895 2.895 0 0 1-.065.424c0 .043-.01.087-.021.13a5.507 5.507 0 0 1-.313 1.098c-.01.01-.01.021-.01.032-.076.163-.151.337-.237.489-.011.022-.011.033-.022.043a5.376 5.376 0 0 1-.667 1 8.295 8.295 0 0 1-.41.467c-.011 0-.011 0-.011.011a8.5 8.5 0 0 1-.947.815c-.011.011-.022.011-.022.021-.161.109-.323.229-.485.326-.021.022-.043.033-.064.044-.393.245-.799.466-1.217.663-.119.054-.248.119-.377.173-.108.044-.205.087-.313.131-.29.108-.57.217-.861.315a.6.6 0 0 0-.13.043c-.172.055-.344.098-.517.153-.043.01-.096.032-.14.043-.546.146-1.1.266-1.658.359h-.032c-.27.043-.528.076-.776.108-.097.011-.183.022-.28.022-.086.011-.172.011-.269.022-.205.012-.41.019-.614.021-.388.001-.776-.01-1.163-.032-.151 0-.302-.011-.453-.022-.205-.022-.42-.033-.614-.055a8.36 8.36 0 0 1-.549-.054 27.398 27.398 0 0 1-.463-.065c-.334-.054-.647-.098-.959-.163-.14-.032-.291-.054-.431-.087-.161-.043-.323-.076-.484-.119a7.887 7.887 0 0 1-.528-.141c-.119-.033-.248-.066-.356-.098a11.335 11.335 0 0 1-.861-.294l-.194-.065c-.625-.239-1.239-.5-1.842-.804-.021-.011-.054-.033-.086-.043a42.997 42.997 0 0 1-1.67-.924c-.054-.032-.118-.065-.172-.098-.442-.26-.819-.477-1.174-.651a.566.566 0 0 0-.129-.066c-.097-.043-.173-.086-.259-.119a2.542 2.542 0 0 0-.711-.207c-.064-.01-.129-.01-.194-.01-.021-.011-.043-.011-.064-.011-.41 0-.765.141-1.099.456a1.804 1.804 0 0 0-.204.206.289.289 0 0 1-.054.066 1.27 1.27 0 0 0-.162.228.972.972 0 0 0-.086.13.406.406 0 0 0-.043.098l-.065.13c-.011.033-.021.055-.032.087a.996.996 0 0 0-.043.141c-.011.033-.022.055-.022.088l-.032.163c0 .021-.011.043-.011.065-.011.076-.011.141-.011.206v.033c0 .087.012.162.033.25v.043c.021.065.032.141.054.206l.032.098c.022.054.032.12.065.174a3.75 3.75 0 0 0 .689 1.065c.312.347.711.695 1.174 1.054.011 0 .011 0 .011.01.129.087.258.185.398.283.033.022.054.043.086.054.399.274.809.532 1.228.771.108.066.216.131.323.185.108.066.216.12.324.174.129.076.28.152.42.228.097.044.183.098.28.142.215.108.441.217.668.326a.33.33 0 0 0 .086.043c.247.12.495.228.743.326.108.043.205.087.312.13.02.012.042.02.065.022 2.305.913 5.148 1.521 7.658 1.63.183.01.377.021.56.021h.011c.086 0 .161 0 .247-.011h.582c.022 0 .043 0 .065-.01 4.082-.131 7.432-1.195 10.286-3.303v-.011c3.167-2.412 4.911-5.813 4.911-9.561 0-.239-.011-.478-.021-.706 0-.087-.011-.174-.011-.25Zm26.335-31.17h-.033a18.023 18.023 0 0 0-13.183 5.715V74.05c0-1.433-1.099-2.607-2.488-2.607-.097 0-.183.011-.27.011a2.555 2.555 0 0 0-1.551.739c-.01 0-.01 0-.021.01-.032.044-.075.088-.108.13a.13.13 0 0 0-.054.055c-.032.033-.053.066-.075.098a.636.636 0 0 1-.075.098l-.033.065a1.83 1.83 0 0 1-.097.152c0 .011 0 .022-.011.033l-.096.195c-.054.163-.108.326-.14.49 0 .01 0 .02-.011.02l-.032.24c0 .087-.011.174-.011.272v40.35l-.032.174.129.108a.55.55 0 0 0 .043.207c0 .011.011.033.011.043.024.065.06.124.107.174.334.641.948 1.13 1.67 1.347l.054.012h.603c.097 0 .194 0 .291-.012.064-.01.129-.032.194-.043.032 0 .053 0 .086-.011.087-.02.174-.046.258-.076h.011c.452-.163.84-.445 1.098-.825l.033-.033c.172-.185.269-.38.366-.652.011-.032.022-.054.022-.076.01-.011.01-.011.01-.022.043-.13.076-.26.108-.391l.011-.043V89.859c.172-7.28 6.074-13.2 13.162-13.211h.021c7.217 0 13.087 5.921 13.087 13.2v24.011c0 .097.011.184.021.271.048.595.304 1.153.722 1.576 0 0 .011 0 .011.01.043.044.086.076.129.12a.174.174 0 0 0 .054.043.504.504 0 0 0 .097.076.557.557 0 0 0 .097.077.162.162 0 0 1 .075.043c.043.033.097.054.14.087.011 0 .022.011.043.011.054.032.119.065.183.098h.011c.153.063.312.11.474.141.021 0 .032.011.043.011l.215.032c.09.01.18.013.27.011.086 0 .172 0 .258-.011.076-.011.151-.021.216-.032.011 0 .032-.011.043-.011.166-.031.328-.078.484-.141l.195-.098c.01 0 .021-.011.032-.011.054-.033.097-.054.151-.087a.2.2 0 0 1 .064-.043.557.557 0 0 0 .097-.077c.032-.021.075-.043.108-.076.011-.01.032-.021.043-.043.043-.044.097-.076.14-.12v-.01c.409-.402.678-.945.732-1.576.011-.087.011-.174.011-.271v-24.01c0-10.137-8.164-18.383-18.213-18.405Zm46.465-.087c11.697 0 21.208 10.115 21.208 22.555s-9.511 22.554-21.208 22.554c-.359.001-.718-.01-1.077-.032-.054 0-.097 0-.151-.011a12.61 12.61 0 0 1-.926-.076h-.032c-4.621-.511-8.94-2.64-12.376-6.128-.14-.141-.291-.282-.42-.434-.011 0-.011-.011-.022-.011-.075-.076-.14-.163-.215-.25-.164-.179-.326-.36-.485-.543-.129-.141-.248-.304-.377-.456a7.44 7.44 0 0 0-.28-.359 11.68 11.68 0 0 1-.549-.739l-.065-.098a22.9 22.9 0 0 1-3.985-10.017c-.054-.336-.086-.673-.119-1.01-.01-.033-.01-.076-.021-.12-.032-.31-.054-.622-.065-.934-.01-.065-.01-.13-.01-.206a19.351 19.351 0 0 1 0-2.26c0-.076 0-.141.01-.206.011-.313.032-.624.065-.935.011-.043.011-.087.021-.12.033-.336.065-.673.119-1.01a22.906 22.906 0 0 1 3.985-10.017.245.245 0 0 1 .054-.087c.181-.258.367-.511.56-.76.086-.109.183-.218.269-.337.13-.163.259-.315.388-.478.152-.173.306-.343.464-.51.075-.088.161-.185.236-.272.011 0 .011-.011.022-.011.118-.141.258-.272.388-.402 3.435-3.498 7.765-5.65 12.408-6.16h.032c.301-.033.614-.055.926-.076.054 0 .097-.011.151-.011.359-.022.718-.033 1.077-.033Zm15.962 20.784v-.022a18.1 18.1 0 0 0-4.351-10.169c-.108-.12-.205-.24-.312-.359l-.194-.195c-.13-.13-.248-.26-.377-.391-.119-.12-.248-.228-.366-.337-.076-.065-.14-.141-.216-.206-.194-.174-.388-.337-.582-.5 0 0-.01 0-.01-.011-2.251-1.836-4.955-3.042-7.863-3.379-.032 0-.054-.01-.075-.01a6.927 6.927 0 0 0-.668-.055c-.054-.011-.097-.011-.14-.011-.269-.021-.539-.021-.808-.021s-.538 0-.808.021c-.043 0-.086 0-.14.011-.226.011-.441.022-.668.054-.021 0-.043.011-.075.011-2.908.337-5.612 1.543-7.863 3.379 0 .011-.011.011-.011.011-.196.163-.39.33-.581.5-.075.065-.14.13-.215.195-.119.12-.248.228-.367.348-.118.12-.237.25-.366.38l-.205.207c-.096.108-.193.228-.301.347a18.145 18.145 0 0 0-4.362 10.18v.022c-.024.253-.042.506-.054.76 0 .044-.011.087-.011.13a23.5 23.5 0 0 0-.021.88c0 9.551 7.281 17.351 16.048 17.351 8.768 0 16.049-7.8 16.049-17.35 0-.294-.011-.587-.022-.88 0-.044-.011-.087-.011-.13-.01-.261-.032-.511-.054-.761Zm67.577-19.665c-.022-.022-.033-.043-.054-.065a2.513 2.513 0 0 0-.991-.75h-.011c-.043-.032-.097-.043-.14-.065-.022 0-.043-.01-.075-.022a2.3 2.3 0 0 0-1.088-.086h-.011a2.677 2.677 0 0 0-1.853 1.25h-.011c-.054.108-.119.216-.161.325l-.011.01v.012l-12.344 34.081-9.694-23.271a2.692 2.692 0 0 0-.376-.598 2.894 2.894 0 0 0-2.166-1.01c-.129 0-.247 0-.376.032h-.043c-.862.153-1.67.76-2.036 1.576v.01l-9.694 23.272-4.696-12.874-7.733-21.218a2.964 2.964 0 0 0-.141-.326l-.021-.022a2.352 2.352 0 0 0-1.066-1.01s-.011 0-.011-.011a3.174 3.174 0 0 0-.711-.217c-.021 0-.032 0-.054-.012a4.196 4.196 0 0 0-.366-.021h-.086c-.054 0-.108 0-.162.01-.032 0-.075.012-.107.012-.054.01-.097.01-.14.021-.033.011-.065.011-.097.022-.054.011-.108.022-.162.043-.021.011-.043.011-.064.022-.055.022-.108.033-.162.065h-.011a2.498 2.498 0 0 0-1.055.924c-.011.022-.022.033-.033.054l-.032.065a2.747 2.747 0 0 0-.356 1.087c-.044.414.015.832.173 1.217l8.95 24.26 5.741 15.558v.011c.237.587.582.988 1.056 1.206.011.011.032.021.043.032a.176.176 0 0 0 .043.033c0 .011.011.011.022.022.022.01.032.021.054.043h.022c.1.063.215.101.333.108.012 0 .023.011.033.011.043.011.086.033.129.044.022 0 .043.011.065.011.269.087.441.119.657.119.118 0 .226-.011.344-.032.092-.012.183-.034.27-.066.022-.01.043-.01.064-.021.09-.023.176-.056.259-.098.032-.011.064-.022.097-.044.053-.032.118-.065.183-.097.048-.035.099-.068.151-.098.032-.022.064-.054.097-.076.074-.055.146-.113.215-.174a.135.135 0 0 0 .032-.044c.076-.075.151-.151.226-.238 0-.011.011-.022.022-.033.068-.09.129-.184.183-.283.057-.112.108-.229.151-.347l.011-.033.033-.043.032-.076 9.726-23.424 9.812 23.51c.078.242.198.466.356.663.022.033.043.055.064.087.055.068.112.133.173.196.032.021.064.054.097.076.053.054.118.108.183.163.032.022.054.043.086.054.073.055.148.105.226.152l.064.033c.086.043.162.087.259.119.022.011.043.022.075.022.077.036.156.065.237.087.104.021.208.042.312.065h.323c.123.001.246-.01.367-.032.032 0 .053 0 .086-.011a2.6 2.6 0 0 0 .301-.076.502.502 0 0 0 .075-.033c.108-.032.216-.087.313-.141.011 0 .022-.011.032-.011.115-.071.226-.147.334-.228.431-.326.743-.75.959-1.271v-.011l6.064-16.47 8.53-23.174a2.565 2.565 0 0 0-.258-2.401.966.966 0 0 0-.086-.13Zm136.972.728a.613.613 0 0 0-.022-.141c0-.033-.011-.065-.022-.098l-.032-.152c-.011-.032-.022-.065-.032-.087a.473.473 0 0 0-.065-.174c0-.021-.011-.032-.022-.054a1.227 1.227 0 0 0-.107-.207v-.01a2.574 2.574 0 0 0-.475-.598l-.011-.01-.011-.011c-.915-.924-2.208-1.043-3.22-.326-.032.021-.054.043-.086.054l-.129.098c-.065.065-.13.12-.194.184 0 0-.011 0-.011.011l-25.236 24.815V54.995c0-.087 0-.173-.011-.26-.097-.956-.733-1.75-1.595-2.119-.011 0-.011-.011-.022-.011a.94.94 0 0 0-.161-.054.78.78 0 0 0-.226-.065 1.658 1.658 0 0 0-.119-.033.631.631 0 0 0-.14-.022c-.043-.01-.075-.01-.118-.021-.098-.011-.184-.011-.27-.011-1.411 0-2.585 1.184-2.585 2.596v58.864c0 1.423 1.174 2.607 2.585 2.607.086 0 .183 0 .27-.011.011 0 .022-.01.043-.01.075-.011.15-.011.215-.033.022 0 .043-.011.064-.011.065-.021.13-.032.194-.054.011 0 .022-.011.033-.011.991-.315 1.723-1.173 1.831-2.205.011-.087.011-.174.011-.272v-9.93l8.498-8.561 16.512 20.099c.107.174.226.326.376.445a.533.533 0 0 0 .087.077c.043.032.086.065.129.086.054.044.108.066.161.098.022.011.054.033.076.044.075.032.14.054.215.087.022.01.043.01.054.021.086.022.161.044.247.065.011 0 .033.011.054.011.085.021.172.035.259.044a.13.13 0 0 1 .064.011c.108 0 .215.01.334.01.162.001.324-.01.485-.032h.011c.293-.044.576-.136.84-.272.011 0 .011-.011.011-.011.123-.068.242-.144.355-.228l.033-.032c.98-.989 1.131-2.336.42-3.455a4.67 4.67 0 0 0-.205-.294l-16.77-20.544 16.651-16.232c.442-.456.712-1.01.776-1.608 0-.01 0-.021.011-.032v-.174c0-.033.011-.065.011-.087v-.043c0-.044-.011-.077-.011-.12 0-.033-.011-.065-.011-.098"/></svg>